<svg width="85" height="20" viewBox="0 0 85 20" fill="none" xmlns="http://www.w3.org/2000/svg">
<g clip-path="url(#clip0_1_3781)">
<path d="M22.9859 5.01956H27.5639C29.418 5.01956 30.8001 5.832 30.8001 7.54369C30.8001 8.79859 30.1588 9.49725 29.0463 9.86807V9.89673C30.3728 10.1681 31.0572 10.8811 31.0572 12.093C31.0572 14.4747 28.9603 14.9736 27.1779 14.9736H22.9859V5.01956ZM25.6381 8.95619H26.3798C27.2495 8.95619 28.1488 8.74212 28.1488 7.90019C28.1488 6.9883 27.2925 6.90233 26.4076 6.90233H25.6381V8.95619ZM25.6381 13.0917H26.4227C27.3928 13.0917 28.405 12.9484 28.405 11.9363C28.405 10.8524 27.3641 10.753 26.4506 10.753H25.6381V13.0917Z" fill="#00529C"/>
<path d="M34.5387 5.01956H37.7901L41.6265 14.9736H38.7172L37.9755 12.849H34.2395L33.4549 14.9736H30.7597L34.5387 5.01956ZM36.1644 7.07342H36.1358L34.8522 10.9671H37.3485L36.1644 7.07342Z" fill="#00529C"/>
<path d="M41.9955 5.01956H45.3751L48.7411 11.7795H48.7689L48.7268 5.01956H51.1515V14.9736H47.8562L44.3772 8.17072H44.3494L44.4337 14.9736H41.9955V5.01956Z" fill="#00529C"/>
<path d="M52.0515 5.01956H54.7037V9.08429H54.7324L57.7268 5.01956H60.9209L57.2422 9.65401L61.2066 14.9736H57.8262L54.7324 10.453H54.7037V14.9736H52.0515V5.01956Z" fill="#00529C"/>
<path d="M64.4959 5.01956H69.0739C70.9271 5.01956 72.311 5.832 72.311 7.54369C72.311 8.79859 71.6696 9.49725 70.5572 9.86807V9.89673C71.8837 10.1681 72.5672 10.8811 72.5672 12.093C72.5672 14.4747 70.4712 14.9736 68.6887 14.9736H64.4959V5.01956ZM67.1481 8.95619H67.8898C68.7604 8.95619 69.6579 8.74212 69.6579 7.90019C69.6579 6.9883 68.8033 6.90233 67.9184 6.90233H67.1481V8.95619ZM67.1481 13.0917H67.9327C68.9019 13.0917 69.915 12.9484 69.915 11.9363C69.915 10.8524 68.8741 10.753 67.9614 10.753H67.1481V13.0917Z" fill="#00529C"/>
<path d="M73.1556 5.01956H77.8903C79.6585 5.01956 81.0988 5.81852 81.0988 7.5302C81.0988 8.8559 80.4718 9.73997 79.1882 10.0392V10.0678C80.0428 10.2962 80.1001 11.0522 80.5999 12.2641L81.5691 14.9736H78.8031L78.2325 13.1777C77.6906 11.466 77.3476 11.037 76.3641 11.037H75.8078V14.9736H73.1556V5.01956ZM75.8078 9.15508H76.5065C77.3628 9.15508 78.4466 9.12643 78.4466 7.99963C78.4466 7.07342 77.5195 6.90233 76.5065 6.90233H75.8078V9.15508Z" fill="#00529C"/>
<path d="M82.3002 5.01953H84.9524V14.9736H82.3002V5.01953Z" fill="#00529C"/>
<path d="M16.9331 0H3.0517C1.36614 0 0 1.39986 0 3.12671V3.15958V16.8741C0 18.5841 1.34086 19.9747 3.00451 20H16.9255C18.6111 20 19.9781 18.601 19.9781 16.8741L19.984 3.12671C19.984 1.39986 18.6187 0 16.9331 0ZM4.70102 18.3979L3.94421 18.4063C3.02726 18.4063 2.28393 17.6529 2.28393 16.7233L2.27972 16.591V3.89533L2.28477 3.21099C2.31933 2.31174 3.00282 1.58864 3.89701 1.58864H5.43677C6.83241 1.58864 7.96342 2.80224 7.96342 4.23244C7.96342 4.94037 7.68615 5.58257 7.23695 6.04947L3.30875 10.0358L6.99085 13.7853C7.46534 14.275 7.75188 14.9172 7.75188 15.6209C7.75188 17.1548 6.38658 18.3979 4.70102 18.3979ZM16.0204 18.3852L9.15596 18.3827C9.15596 18.3827 9.94901 16.6676 9.94901 15.6057C9.94901 14.3104 9.51666 13.1541 8.83907 12.3889L6.49109 9.99536L8.88711 7.51928C9.60094 6.84927 10.0746 5.65926 10.0746 4.30323C10.0746 3.22953 9.77793 2.27888 9.30007 1.58864H10.9629C12.3585 1.58864 13.4904 2.80224 13.4904 4.23244C13.4904 4.94037 13.2131 5.58257 12.7639 6.04947L8.91071 9.99452L16.9137 18.1552C16.6601 18.3144 16.3406 18.3852 16.0204 18.3852ZM17.6967 15.8375L11.9616 9.99199L14.693 7.21588C15.2484 6.52059 15.6015 5.47385 15.6015 4.30323C15.6015 3.22279 15.3007 2.24769 14.8186 1.55746L16.0406 1.59454C16.9576 1.59454 17.7009 2.34798 17.7009 3.27757L17.6967 15.8375Z" fill="#00529C"/>
</g>
<defs>
<clipPath id="clip0_1_3781">
<rect width="84.9524" height="20" fill="white"/>
</clipPath>
</defs>
</svg>
