<svg width="62" height="20" viewBox="0 0 62 20" fill="none" xmlns="http://www.w3.org/2000/svg">
<g clip-path="url(#clip0_1_3715)">
<path d="M1.88286 2.01242C4.51859 0.664139 7.25431 0 10.0817 0C10.1017 0 10.1217 0 10.1417 0C10.1617 0 10.1817 0 10.2017 0C13.0291 0 15.7648 0.664139 18.4005 2.01242L18.5622 2.18324C19.638 4.71814 20.2521 7.30386 20.2821 9.92959C20.2821 9.97958 20.2821 10.0196 20.2821 10.0704V10.2512C20.2721 12.7761 19.7288 15.3519 18.5622 17.9676L18.3805 18.1384C15.6348 19.3559 12.8882 19.9692 10.1417 20C7.39513 19.9692 4.64858 19.3559 1.90286 18.1384L1.7212 17.9676C0.554584 15.3519 0.0112737 12.7761 0.00127411 10.2512V10.0704C0.00127411 10.0196 0.00127411 9.97958 0.00127411 9.92959C0.0312729 7.30386 0.645414 4.71814 1.7212 2.18324L1.88286 2.01242ZM10.1417 0.684138C10.1217 0.684138 10.1017 0.684138 10.0817 0.684138C7.39513 0.684138 4.81024 1.30745 2.30534 2.56489C1.28872 4.97979 0.715411 7.43469 0.685412 9.93959C0.645414 12.4245 1.15789 14.9694 2.29451 17.5651C4.91024 18.7017 7.52596 19.285 10.1417 19.3159C12.7574 19.285 15.3731 18.7017 17.988 17.5651C19.1255 14.9694 19.638 12.4245 19.598 9.93959C19.568 7.43469 18.9946 4.97979 17.978 2.56489C15.4731 1.30745 12.8882 0.684138 10.2017 0.684138C10.1817 0.684138 10.1617 0.684138 10.1417 0.684138Z" fill="#003399"/>
<path fill-rule="evenodd" clip-rule="evenodd" d="M10.3225 15.5834C10.1817 13.6619 10.2725 11.6594 9.69921 9.82868C9.1659 8.11875 7.14348 7.14296 7.10348 5.26137C7.06348 3.79227 8.1801 2.09234 10.2725 2.09234C12.2341 2.08234 13.4516 3.51061 13.5924 5.10054C13.7632 6.9413 11.53 8.17875 10.9467 9.92951C10.3425 11.7203 10.5142 13.7019 10.3225 15.5834Z" fill="#003399"/>
<path fill-rule="evenodd" clip-rule="evenodd" d="M11.0975 15.1203C11.0167 13.4504 11.0167 11.8513 11.48 10.4322C11.9924 8.82309 13.0591 7.46481 14.689 7.02233C15.8056 6.72067 17.4447 8.02812 17.1839 9.3664C16.9622 10.443 15.8856 11.7105 14.1557 11.8513C13.3507 11.9213 13.0091 12.5654 12.5058 12.9379C14.759 12.7163 16.2181 11.8313 17.2339 10.9055C17.3847 11.6896 17.4855 13.0079 16.8714 13.4604C15.6648 14.3154 14.5482 13.6212 13.1291 14.0237C12.3349 14.2554 11.8416 14.7587 11.0975 15.1203Z" fill="#003399"/>
<path fill-rule="evenodd" clip-rule="evenodd" d="M9.55838 15.1203C9.64837 13.4504 9.63837 11.8513 9.18589 10.4322C8.67258 8.82309 7.60679 7.46481 5.97686 7.02233C4.86024 6.72067 3.21031 8.02812 3.48196 9.3664C3.70362 10.443 4.77941 11.7105 6.51017 11.8513C7.30514 11.9213 7.65679 12.5654 8.1601 12.9379C5.89603 12.7163 4.44776 11.8313 3.43197 10.9055C3.28114 11.6896 3.18031 13.0079 3.79362 13.4604C5.00107 14.3154 6.11769 13.6212 7.53596 14.0237C8.33093 14.2554 8.81341 14.7587 9.55838 15.1203Z" fill="#003399"/>
<path fill-rule="evenodd" clip-rule="evenodd" d="M14.9198 17.6052V17.3335L15.1215 17.2835L14.9198 16.9819V16.4786L15.8256 17.736L15.504 17.8168L15.2823 17.5043L14.9198 17.6052ZM14.9198 16.4786V16.9819L14.779 16.7802L14.719 17.3843L14.9198 17.3335V17.6052L14.689 17.656L14.6482 18.0277L14.3265 18.1085L14.5382 16.4686L14.8598 16.3877L14.9198 16.4786ZM11.9224 18.481V18.2193H11.9924C12.1033 18.2093 12.1741 18.1993 12.2041 18.1885C12.2441 18.1785 12.2841 18.1485 12.3049 18.1185C12.3349 18.0785 12.3449 18.0377 12.3449 17.9877C12.3349 17.9377 12.3249 17.8968 12.2941 17.8668C12.2741 17.8368 12.2341 17.8168 12.1941 17.8068C12.1541 17.7968 12.0633 17.7968 11.9224 17.8068V17.5452C12.0024 17.5452 12.0533 17.5352 12.0733 17.5352C12.1233 17.5252 12.1641 17.4943 12.1941 17.4643C12.2241 17.4343 12.2341 17.3943 12.2241 17.3435C12.2241 17.2935 12.2041 17.2535 12.1741 17.2327C12.1541 17.2027 12.1133 17.1827 12.0533 17.1827C12.0333 17.1827 11.9924 17.1827 11.9224 17.1927V16.931C12.0333 16.921 12.1133 16.921 12.1641 16.931C12.2241 16.931 12.2841 16.9519 12.3349 16.9819C12.3849 17.0019 12.4249 17.0419 12.4658 17.0919C12.4958 17.1427 12.5158 17.2027 12.5258 17.2735C12.5358 17.3435 12.5158 17.4143 12.4858 17.4743C12.4558 17.5352 12.4049 17.5852 12.3349 17.6252C12.4349 17.646 12.5158 17.686 12.5658 17.746C12.6266 17.8068 12.6566 17.8768 12.6666 17.9677C12.6666 18.0377 12.6566 18.1085 12.6366 18.1785C12.6066 18.2493 12.5658 18.2993 12.5158 18.3501C12.4558 18.3901 12.3949 18.4201 12.3149 18.4401C12.2641 18.4501 12.1333 18.4601 11.9424 18.481H11.9224ZM13.8232 17.6352L14.1357 17.676C14.1157 17.8468 14.0649 17.9877 13.9749 18.0885C13.884 18.1785 13.7532 18.2493 13.5924 18.2793C13.3907 18.3093 13.2099 18.2693 13.0591 18.1585C12.8982 18.0377 12.8074 17.8668 12.7574 17.6252C12.7166 17.3743 12.7474 17.1627 12.8574 17.0019C12.9582 16.841 13.1191 16.7402 13.3307 16.7002C13.5215 16.6694 13.6724 16.7002 13.8132 16.7902C13.894 16.841 13.964 16.921 14.0149 17.0419L13.7232 17.1627C13.6932 17.0919 13.6424 17.0319 13.5824 17.0019C13.5115 16.9619 13.4415 16.9519 13.3607 16.9619C13.2499 16.9819 13.1699 17.0419 13.1091 17.1327C13.0491 17.2327 13.0391 17.3644 13.0691 17.5452C13.1091 17.736 13.1699 17.8668 13.2499 17.9377C13.3307 18.0077 13.4315 18.0377 13.5415 18.0177C13.6224 17.9977 13.6832 17.9577 13.7332 17.8968C13.7832 17.8368 13.8132 17.746 13.8232 17.6352ZM11.9224 16.931V17.1927C11.8824 17.1927 11.8416 17.2027 11.7916 17.2027L11.6108 17.2235L11.6408 17.5752L11.8516 17.5552C11.8716 17.5552 11.9024 17.5552 11.9224 17.5452V17.8068C11.9224 17.8068 11.9224 17.8068 11.9124 17.8068L11.6708 17.8268L11.7008 18.2393L11.9224 18.2193V18.481L11.4191 18.531L11.2783 16.9919L11.8924 16.9419C11.9024 16.931 11.9124 16.931 11.9224 16.931ZM9.98086 17.9477V17.686C10.0509 17.686 10.0917 17.676 10.1217 17.666C10.1617 17.656 10.1917 17.6252 10.2225 17.5952C10.2425 17.5552 10.2525 17.5152 10.2525 17.4743C10.2625 17.4143 10.2425 17.3743 10.2117 17.3335C10.1817 17.2935 10.1417 17.2735 10.0917 17.2635C10.0609 17.2635 10.0309 17.2535 9.98086 17.2535V16.9919C10.1317 16.9919 10.2225 17.0019 10.2725 17.0219C10.3633 17.0419 10.4333 17.0919 10.4942 17.1727C10.5542 17.2535 10.5842 17.3535 10.5742 17.4743C10.5742 17.5652 10.5542 17.646 10.5242 17.716C10.4833 17.776 10.4433 17.8268 10.3933 17.8668C10.3325 17.8968 10.2825 17.9168 10.2225 17.9377C10.1617 17.9477 10.0817 17.9477 9.98086 17.9477ZM9.98086 16.9919V17.2535C9.95086 17.2535 9.91003 17.2535 9.86003 17.2535L9.7092 17.2435V17.686H9.87003C9.91003 17.686 9.95086 17.686 9.98086 17.686V17.9477C9.96086 17.9477 9.93003 17.9477 9.90003 17.9477H9.6992L9.6892 18.531L9.37672 18.521L9.40755 16.9819L9.90003 16.9919C9.93003 16.9919 9.96086 16.9919 9.98086 16.9919ZM7.07348 17.7968V17.3235C7.16431 17.3435 7.22431 17.3435 7.25431 17.3435C7.29514 17.3335 7.32514 17.3235 7.35514 17.2935C7.37513 17.2635 7.39513 17.2327 7.40513 17.1827C7.41513 17.1327 7.40513 17.0919 7.38513 17.0519C7.36514 17.0119 7.32514 16.9919 7.27431 16.9719C7.25431 16.9619 7.18431 16.9519 7.07348 16.931V16.6694L7.20431 16.6902C7.36514 16.7202 7.47596 16.7502 7.54596 16.7902C7.61679 16.831 7.66679 16.891 7.69679 16.9719C7.72762 17.0419 7.73762 17.1327 7.71762 17.2235C7.69679 17.3335 7.64679 17.4243 7.56679 17.4843C7.49596 17.5452 7.38513 17.5752 7.24431 17.5752C7.30514 17.6252 7.35514 17.676 7.38513 17.726C7.42513 17.7868 7.46596 17.8768 7.51596 18.0077L7.64679 18.3401L7.28431 18.2693L7.12348 17.8968C7.10348 17.8668 7.09348 17.8268 7.07348 17.7968ZM7.95844 16.841L8.2601 16.871L8.1901 17.706C8.1801 17.8368 8.1801 17.9277 8.1801 17.9577C8.1901 18.0277 8.2201 18.0785 8.2601 18.1185C8.31093 18.1685 8.37093 18.1885 8.46176 18.1993C8.55259 18.2093 8.62258 18.1885 8.66258 18.1585C8.71341 18.1285 8.74341 18.0885 8.76341 18.0377C8.77341 17.9877 8.78341 17.8968 8.79341 17.776L8.86424 16.921L9.17589 16.9519L9.1059 17.756C9.0959 17.9477 9.07506 18.0785 9.04506 18.1485C9.02507 18.2193 8.98507 18.2893 8.94424 18.3293C8.89424 18.3801 8.82424 18.4201 8.74341 18.4401C8.67258 18.471 8.57259 18.471 8.45176 18.4601C8.30093 18.4501 8.1901 18.4201 8.11927 18.3801C8.04927 18.3401 7.98844 18.2893 7.94844 18.2393C7.90845 18.1785 7.88845 18.1185 7.87845 18.0585C7.86845 17.9677 7.86845 17.8368 7.87845 17.666L7.95844 16.841ZM5.51438 17.2935L5.57438 17.0419L6.22852 17.2127L6.06769 17.8068C5.98686 17.8568 5.88603 17.8868 5.7452 17.8968C5.61438 17.9068 5.49438 17.8968 5.37355 17.8668C5.21189 17.8268 5.0819 17.756 4.99107 17.666C4.89024 17.5652 4.83024 17.4443 4.80024 17.3135C4.77941 17.1727 4.77941 17.0319 4.82024 16.891C4.86024 16.7402 4.93024 16.6094 5.03107 16.4986C5.1219 16.3986 5.24272 16.3377 5.38355 16.3077C5.49438 16.2777 5.62437 16.2877 5.76604 16.3277C5.94686 16.3777 6.08769 16.4486 6.16769 16.5594C6.24852 16.6594 6.28851 16.7902 6.27851 16.931L5.96686 16.911C5.96686 16.831 5.94686 16.7602 5.89603 16.7002C5.84603 16.6494 5.78603 16.5994 5.69521 16.5794C5.56438 16.5494 5.45355 16.5594 5.35272 16.6194C5.25272 16.6802 5.18189 16.8002 5.1319 16.9619C5.0819 17.1427 5.0919 17.2835 5.14189 17.3943C5.20189 17.5043 5.29272 17.5752 5.41355 17.6052C5.48355 17.6252 5.54438 17.6252 5.61438 17.6252C5.68521 17.6152 5.7452 17.5952 5.80603 17.5752L5.85603 17.3843L5.51438 17.2935ZM7.07348 16.6694L6.55017 16.5794L6.28851 18.0985L6.59017 18.1485L6.701 17.5152L6.77183 17.5252C6.84182 17.5352 6.89265 17.5552 6.92265 17.5652C6.95265 17.5852 6.97265 17.6152 7.00265 17.646C7.01265 17.676 7.04348 17.726 7.07348 17.7968V17.3235C7.04348 17.3235 7.01265 17.3135 6.97265 17.3135L6.75183 17.2735L6.81183 16.891L7.05348 16.931C7.06348 16.931 7.07348 16.931 7.07348 16.931V16.6694Z" fill="#003399"/>
<path fill-rule="evenodd" clip-rule="evenodd" d="M55.019 14.7886V11.9512H56.2664V6.96144L55.019 9.45633V3.22909H59.9179L61.1654 17.5752H56.2664V14.7886H55.019ZM55.019 3.22909V9.45633L53.7715 11.9512H55.019V14.7886H52.6649L51.6991 17.4243H48.6609V14.1445L52.0508 6.83061H51.3566L53.2882 3.22909H55.019ZM48.6609 8.00806L50.18 4.40654L48.6609 3.56158V8.00806ZM36.5789 6.62978C36.6497 6.2173 36.6497 5.81482 36.5789 5.43233V6.62978ZM48.6609 3.56158V8.00806L48.4601 8.49054C45.4619 6.34813 41.0354 8.29971 40.7837 10.563C40.5329 12.927 42.3337 14.8386 46.931 13.4103L45.351 17.6352C39.2855 18.3093 36.9314 15.9052 36.5789 13.0987V11.5087C36.6697 10.7746 36.8606 10.0605 37.1222 9.39633C40.1104 1.97164 44.9586 3.64157 46.8002 3.50075L47.0718 2.67578L48.6609 3.56158ZM48.6609 14.1445L47.1418 17.4243H48.6609V14.1445ZM31.1266 17.3335C34.3757 16.6902 37.5647 12.7862 34.3657 9.67799C35.6131 9.01385 36.3881 7.81723 36.5789 6.62978V5.43233C36.3581 4.19488 35.4023 3.18909 33.6015 3.15909L31.1266 3.10826V5.86481H32.1524C33.2491 5.86481 33.1082 8.7022 31.74 8.7022H31.1266V10.8754C32.6057 11.1571 32.0824 13.2087 31.1266 13.8428V17.3335ZM36.5789 11.5087V13.0987C36.5189 12.5754 36.5189 12.0421 36.5789 11.5087ZM26.841 3.01827L24.8394 6.90144L25.7344 6.83061L23.3203 17.4243H30.2317C30.5333 17.4243 30.825 17.3943 31.1266 17.3335V13.8428C30.9558 13.9636 30.7642 14.0336 30.5733 14.0336H28.0884L28.9134 10.8446H30.7742C30.905 10.8446 31.0258 10.8546 31.1266 10.8754V8.7022H29.3959L30.09 5.86481H31.1266V3.10826L26.841 3.01827Z" fill="#003399"/>
</g>
<defs>
<clipPath id="clip0_1_3715">
<rect width="61.1667" height="20" fill="white"/>
</clipPath>
</defs>
</svg>
