<svg width="70" height="20" viewBox="0 0 70 20" fill="none" xmlns="http://www.w3.org/2000/svg">
<g clip-path="url(#clip0_1_3777)">
<path d="M51.7473 11.3998H54.1778V19.7577H51.7473V11.3998ZM45.765 19.7577V13.9945C45.765 13.5222 45.7567 13.0699 45.74 12.6343C45.7234 12.2011 45.7017 11.7905 45.6684 11.3998H47.8965L47.9848 12.895C48.1964 12.3819 48.5346 11.9937 48.9977 11.7297C49.4583 11.4665 50.0356 11.3357 50.7236 11.3357H50.796L50.7877 13.5305C50.6403 13.5197 50.5328 13.5114 50.4604 13.5055C50.3854 13.4997 50.3188 13.4972 50.2605 13.4972C49.6249 13.4972 49.1285 13.653 48.7703 13.9612C48.4096 14.2685 48.2297 14.6992 48.2297 15.2456V19.7577H45.765ZM42.09 11.3998H44.5206V19.7577H42.09V11.3998ZM38.151 19.7577L38.071 18.5641C37.7712 19.0138 37.4105 19.3529 36.989 19.5803C36.5667 19.8076 36.0903 19.9218 35.5572 19.9218C34.5443 19.9218 33.723 19.5244 33.09 18.7306C32.4603 17.9368 32.1438 16.8857 32.1438 15.5813C32.1438 14.2685 32.4519 13.2173 33.0708 12.4285C33.6897 11.6414 34.5077 11.2466 35.5264 11.2466C36.0786 11.2466 36.5617 11.3549 36.9724 11.5689C37.3855 11.7822 37.7404 12.1095 38.0377 12.5485V7.76733H40.4516V18.0759C40.4516 18.4974 40.4574 18.8414 40.4708 19.103C40.4849 19.3662 40.5074 19.5853 40.5324 19.7577H38.151ZM34.6076 15.5954C34.6076 16.4584 34.7576 17.1272 35.0549 17.6012C35.3515 18.0759 35.7704 18.3117 36.306 18.3117C36.8524 18.3117 37.2889 18.0701 37.6079 17.5845C37.9269 17.0989 38.0877 16.4359 38.0877 15.5954C38.0877 14.7516 37.9269 14.0828 37.6079 13.5972C37.2889 13.1091 36.8524 12.865 36.306 12.865C35.7704 12.865 35.3515 13.1032 35.0549 13.5838C34.7576 14.0636 34.6076 14.735 34.6076 15.5954ZM23.1204 19.7577V13.0033C23.1204 12.765 23.1154 12.5152 23.1012 12.2544C23.0871 11.9937 23.0654 11.708 23.0404 11.3998H25.3544L25.4043 12.6534C25.7175 12.1487 26.0924 11.7797 26.523 11.5464C26.9528 11.3132 27.4801 11.1966 28.1039 11.1966C29.0252 11.1966 29.7082 11.4581 30.1547 11.9821C30.6011 12.5035 30.826 13.3031 30.826 14.3768V19.7577H28.4371V14.71C28.4371 14.0853 28.3288 13.6388 28.1148 13.3673C27.9015 13.0974 27.555 12.9616 27.0719 12.9616C26.6055 12.9616 26.2281 13.1116 25.9449 13.4139C25.6592 13.7138 25.5176 14.1136 25.5176 14.6125V19.7577H23.1204ZM0.0801143 19.7577V13.0033C0.0801143 12.7034 0.0742836 12.4235 0.0634553 12.1603C0.0517939 11.8963 0.0351349 11.6439 0.015977 11.3998H2.31659L2.37989 12.6534C2.69392 12.1487 3.06541 11.7797 3.49855 11.5464C3.92835 11.3132 4.45561 11.1966 5.07699 11.1966C5.70754 11.1966 6.23729 11.3357 6.67293 11.6164C7.10523 11.8963 7.42175 12.3011 7.62166 12.8317C7.89403 12.2678 8.24887 11.8546 8.687 11.5906C9.12597 11.3274 9.68072 11.1966 10.3546 11.1966C11.2767 11.1966 11.9613 11.4581 12.4111 11.9821C12.8609 12.5035 13.085 13.3031 13.085 14.3768V19.7577H10.6711V14.71C10.6711 14.0853 10.5628 13.6388 10.3496 13.3673C10.1355 13.0974 9.789 12.9616 9.30589 12.9616C8.84027 12.9616 8.46544 13.1116 8.18807 13.4139C7.90736 13.7138 7.76909 14.1136 7.76909 14.6125V19.7577H5.35436V14.71C5.35436 14.0911 5.24941 13.6471 5.03868 13.3723C4.82711 13.0974 4.48643 12.9616 4.01415 12.9616C3.54852 12.9616 3.17953 13.1116 2.90465 13.4089C2.62978 13.7079 2.49401 14.1078 2.49401 14.6125V19.7577H0.0801143ZM19.617 18.8847C19.1297 19.3095 18.1777 19.766 17.5221 19.9134C17.2714 19.9717 16.9974 20.0001 16.7008 20.0001C15.9987 20.0001 15.4114 19.7527 14.9375 19.2596C14.4644 18.7648 14.2286 18.1342 14.2286 17.3679C14.2286 16.7524 14.3494 16.2526 14.5901 15.8645C14.8325 15.4738 15.1732 15.1673 15.6155 14.9432C16.0528 14.7208 16.5984 14.5601 17.2464 14.4651C17.8953 14.371 18.5683 14.2993 19.2638 14.256V14.2102C19.2638 12.2111 16.4135 12.4602 15.194 13.3148L14.7725 11.7397C15.7246 11.2924 16.6625 11.0658 17.8278 11.0658C19.871 11.0658 21.5969 12.0454 21.5969 14.3868V19.7752H19.617V18.8847ZM19.4254 17.2538V15.6421C19.0573 15.6779 18.6558 15.7254 18.2251 15.7845C17.7945 15.8461 17.468 15.9169 17.2447 15.9969C16.9724 16.0935 16.7625 16.2385 16.62 16.4242C16.4751 16.6133 16.4026 16.8582 16.4026 17.1647C16.4026 19.2812 18.874 18.594 19.4254 17.2538Z" fill="#0061AE"/>
<path fill-rule="evenodd" clip-rule="evenodd" d="M26.9961 6.07556C27.7416 6.90851 29.1293 9.16831 30.7719 9.02837C34.621 8.70185 36.8125 4.5396 41.5644 4.83696C43.516 4.95857 44.4356 8.2329 46.3714 8.51527C49.4217 8.95924 52.3453 4.26805 57.3172 4.5371C59.3621 4.64788 60.2067 8.08297 62.2441 8.28121C64.1441 8.46613 67.1194 5.7732 69.734 4.37717C69.0685 3.25519 67.8307 1.50432 66.5138 1.41603C63.9208 1.24111 61.8468 4.55376 59.5662 3.97569C58.2393 3.63918 56.7266 -0.00748502 54.5402 1.1542e-05C50.4928 0.0133388 47.7 4.02067 44.1208 4.33719C42.0909 4.51711 41.1138 0.000844489 38.3951 0.415654C34.6734 0.983727 30.8702 4.05065 26.9961 6.07556Z" fill="url(#paint0_linear_1_3777)"/>
</g>
<defs>
<linearGradient id="paint0_linear_1_3777" x1="29.6941" y1="12.3077" x2="67.0361" y2="-3.14603" gradientUnits="userSpaceOnUse">
<stop stop-color="#F6AD02"/>
<stop offset="0.2" stop-color="#FFF000"/>
<stop offset="0.411765" stop-color="#F6AD02"/>
<stop offset="0.658824" stop-color="#FFF000"/>
<stop offset="0.788235" stop-color="#F6AD02"/>
<stop offset="1" stop-color="#FFF000"/>
</linearGradient>
<clipPath id="clip0_1_3777">
<rect width="69.75" height="20" fill="white"/>
</clipPath>
</defs>
</svg>
