<svg width="69" height="20" viewBox="0 0 69 20" fill="none" xmlns="http://www.w3.org/2000/svg">
<path fill-rule="evenodd" clip-rule="evenodd" d="M23.7305 0C24.535 0.535212 25.3534 1.34686 25.3534 2.13046V15.9493C25.3534 16.7236 24.6013 17.8189 23.9177 18.2554C26.3312 18.2554 28.7457 18.2554 31.1592 18.2554C35.8449 18.0673 38.6863 16.4242 39.0265 12.9781C39.264 10.5619 37.9503 8.6829 34.7205 7.62287C36.3317 7.02738 37.1982 5.7304 37.2774 3.94186C37.4132 0.865692 33.7278 0 31.4095 0H23.7305V0ZM28.2247 7.39943V1.63785H30.4478C32.9682 1.63785 34.1568 2.83922 34.1557 4.65063C34.1557 6.46203 32.4504 7.39943 30.3226 7.39943H28.2247ZM30.5943 16.496H28.2247V9.03625H30.9099C34.9088 9.03625 36.1188 11.3725 35.9037 13.2816C35.6898 15.1917 34.0006 16.496 30.5943 16.496ZM45.4025 0H41.4678C42.3429 0.945714 42.7237 1.44247 42.7237 2.90885V15.5024C42.7237 16.9522 42.0626 17.8428 41.1126 18.4726H46.3493C45.5715 18.0112 44.735 17.106 44.735 15.4681V4.34405C47.3795 7.77564 50.0251 11.2083 52.6697 14.6409C54.1695 16.5469 55.908 18.1629 57.9352 19.4287V2.84234C57.9352 1.18162 58.6253 0.547683 59.5474 0H54.4423C55.3677 0.667196 55.8588 1.41961 55.8588 2.77687V13.8833L45.4025 0V0ZM62.4455 18.4726C63.5046 17.7898 64.0427 16.9886 64.0427 15.9493V2.75816C64.0427 1.19929 63.5795 0.845947 62.6702 0H68.7135C67.6704 0.570546 66.9387 1.73554 66.9387 2.75816V15.9129C66.9387 16.922 67.5538 17.847 68.3883 18.4726H62.4455Z" fill="#007697"/>
<path fill-rule="evenodd" clip-rule="evenodd" d="M0 0H5.83363C5.52874 0.508194 5.29873 1.65033 5.88819 4.21521C6.4124 6.49532 7.92831 8.87313 9.51054 10.7531L7.52285 12.338L0 3.15621V0L0 0ZM8.51884 0H18.7889V2.4173C17.9941 1.96626 16.5456 1.53082 14.4188 2.35702C10.9869 3.69142 10.6927 7.59693 10.6927 7.59693C8.79378 5.36877 7.54532 1.7158 8.51884 0V0ZM18.7889 5.62443V12.8202C16.4557 13.6807 13.1821 11.4432 12.3594 8.78687C11.1677 4.93749 13.977 3.54801 15.9871 3.92941C17.4902 4.21417 18.3621 5.08402 18.7889 5.62443ZM18.7889 14.0008V18.2534H12.4942L13.7566 17.2464C12.9328 17.3441 11.3153 16.9679 10.5279 16.0066L8.31236 13.3024L10.3375 11.6864C11.5828 13.0197 12.7681 13.9769 13.4378 14.2648C14.8735 14.88 16.4899 15.1762 18.7889 14.0008ZM8.97992 18.2534H2.1043L6.38779 14.8364C6.73869 15.2645 7.07674 15.6782 7.39875 16.07C8.02994 16.8411 8.55949 17.6008 8.97992 18.2534ZM0.10591 18.2534H0V7.03885C1.63573 9.03629 3.72612 11.5877 5.59828 13.873L0.10591 18.2534Z" fill="#EC6722"/>
</svg>
