<svg width="95" height="20" viewBox="0 0 95 20" fill="none" xmlns="http://www.w3.org/2000/svg">
<path d="M10.3602 0C16.081 0 20.7191 4.3485 20.7191 9.71191C20.7191 15.0753 16.081 19.4238 10.3602 19.4238C4.63816 19.4238 0 15.0753 0 9.71191C0 4.3485 4.63816 0 10.3602 0Z" fill="#00AED6"/>
<path fill-rule="evenodd" clip-rule="evenodd" d="M16.4029 9.41261C16.3233 8.17605 15.2016 7.22836 13.8816 7.28411H7.33786C7.09917 7.28411 6.90613 7.10293 6.90613 6.87868C6.90613 6.65569 7.09917 6.47451 7.33786 6.47451H13.9677C13.9299 5.63705 13.3195 4.91741 12.4573 4.69443C10.5243 4.37009 8.54566 4.37009 6.61266 4.69443C5.51443 4.94782 4.69271 5.80429 4.5414 6.8546C4.2388 8.76012 4.2388 10.696 4.5414 12.6003C4.77227 13.7127 5.71399 14.573 6.90613 14.7617C9.30217 15.0443 11.7269 15.0443 14.1229 14.7617C15.1912 14.559 15.9985 13.7368 16.1264 12.7219C16.3455 11.6311 16.4381 10.5212 16.4029 9.41261ZM14.2442 10.7721V11.1281C14.2442 11.3511 14.0512 11.5322 13.8125 11.5322C13.5738 11.5322 13.3808 11.3511 13.3808 11.1281V10.7721C13.2412 10.658 13.1629 10.4921 13.1656 10.3185C13.1656 9.98274 13.4551 9.71161 13.8125 9.71161C14.1699 9.71161 14.4594 9.98274 14.4594 10.3185C14.4581 10.4908 14.3799 10.6555 14.2442 10.7721Z" fill="white"/>
<path d="M50.2271 8.61973C50.2414 6.91692 48.7806 5.52578 46.9636 5.51185C45.1467 5.49918 43.6637 6.86751 43.6494 8.57032C43.635 10.2731 45.0959 11.6655 46.9128 11.6782C46.9297 11.6782 46.9467 11.6782 46.9636 11.6782C48.6867 11.7656 50.1592 10.5253 50.2518 8.90987C50.2571 8.81358 50.2571 8.71602 50.2531 8.61973H50.2271ZM40.4551 8.61973C40.4551 5.38262 43.1824 2.91455 46.9636 2.91455C50.7449 2.91455 53.4735 5.39782 53.4735 8.61973C53.4735 11.8404 50.771 14.3325 46.9636 14.3325C43.1563 14.3325 40.4551 11.848 40.4551 8.61973Z" fill="white"/>
<path d="M35.2745 9.2103C35.2745 10.5458 33.8241 11.638 31.9863 11.638C30.2972 11.7989 28.7894 10.6446 28.6185 9.06078C28.6015 8.90113 28.5989 8.74021 28.6107 8.5793C28.6107 6.81428 29.992 5.60043 32.1154 5.60043C33.8423 5.60043 35.2745 6.70911 35.2745 7.9635V9.2103ZM35.4036 2.90539V4.18385C34.3536 3.28931 32.9619 2.8319 31.5454 2.91426C28.1959 2.94213 25.5064 5.51174 25.5364 8.65152C25.5677 11.7913 28.3081 14.314 31.6576 14.2849C33.0362 14.3432 34.3784 13.8592 35.3606 12.9494V14.0416C35.3606 15.5228 33.9975 16.6074 32.2015 16.6074C30.8306 16.6999 29.4794 16.2552 28.4724 15.3771L26.3738 17.2714C27.9468 18.7183 30.0846 19.4963 32.2876 19.4241C35.9658 19.4241 38.4857 17.1092 38.4857 14.0264V2.90539H35.4036Z" fill="white"/>
<path d="M55.373 3.23701H58.463V4.19238H58.506C59.5195 3.3257 60.8577 2.87209 62.2273 2.92911C65.5911 3.04821 68.2154 5.70147 68.0889 8.85396C67.9689 11.8417 65.4137 14.2365 62.2273 14.3493C60.919 14.3772 59.6421 13.9742 58.6182 13.2076V18.6143H55.3991L55.373 3.23701ZM61.7264 5.60011C59.9995 5.60011 58.5934 6.72527 58.5934 7.948V9.31518C58.5934 10.6177 59.9825 11.6947 61.7433 11.6947C63.5394 11.7809 65.0694 10.4872 65.162 8.80454C65.2546 7.12187 63.8746 5.68754 62.0786 5.60011C61.9677 5.59504 61.8555 5.59504 61.7433 5.60011H61.7264Z" fill="white"/>
<path d="M74.269 7.57537C76.3846 7.30802 77.0146 7.02419 77.0146 6.47428C77.0146 5.76218 76.2125 5.33264 74.9681 5.33264C73.6286 5.23001 72.4091 6.05868 72.0934 7.28394L69.0557 6.69222C69.4874 4.4913 71.9043 2.92139 74.882 2.92139C78.2498 2.92139 80.338 4.53945 80.338 7.1623V14.0337H77.4463V12.8363H77.4033C76.4225 13.8715 74.9838 14.4214 73.5099 14.3251C70.9626 14.3251 69.1926 13.0213 69.1926 11.0877C69.1926 9.15289 70.643 8.04419 74.269 7.57537ZM77.2742 8.71574H77.2311C76.9455 9.10474 76.3677 9.33155 74.7699 9.59003C72.8799 9.92201 72.1808 10.2705 72.1808 10.9015C72.1808 11.5325 72.7417 11.8404 73.9586 11.8404C75.8146 11.8404 77.2481 11.0307 77.2481 10.0031L77.2742 8.71574Z" fill="white"/>
<path d="M86.1657 13.4269L80.8389 3.2373H84.3879L87.8835 10.2948H87.9357L91.3882 3.2373H94.9542L86.977 18.6143H83.4292L86.1657 13.4269Z" fill="white"/>
</svg>
