<svg width="32" height="32" viewBox="0 0 32 32" fill="none" xmlns="http://www.w3.org/2000/svg">
<path d="M16 13.3966C14.5664 13.3966 13.3965 14.5665 13.3965 16.0001C13.3965 17.4337 14.5664 18.6036 16 18.6036C17.4336 18.6036 18.6035 17.4337 18.6035 16.0001C18.6035 14.5665 17.4336 13.3966 16 13.3966ZM23.8086 16.0001C23.8086 14.922 23.8183 13.8536 23.7578 12.7774C23.6972 11.5274 23.4121 10.4181 22.498 9.504C21.582 8.58798 20.4746 8.30478 19.2246 8.24423C18.1465 8.18369 17.0781 8.19345 16.0019 8.19345C14.9238 8.19345 13.8554 8.18369 12.7793 8.24423C11.5293 8.30478 10.4199 8.58994 9.50583 9.504C8.58981 10.42 8.30661 11.5274 8.24606 12.7774C8.18552 13.8556 8.19528 14.9239 8.19528 16.0001C8.19528 17.0763 8.18552 18.1466 8.24606 19.2227C8.30661 20.4727 8.59177 21.5821 9.50583 22.4962C10.4218 23.4122 11.5293 23.6954 12.7793 23.756C13.8574 23.8165 14.9258 23.8067 16.0019 23.8067C17.08 23.8067 18.1484 23.8165 19.2246 23.756C20.4746 23.6954 21.584 23.4102 22.498 22.4962C23.414 21.5802 23.6972 20.4727 23.7578 19.2227C23.8203 18.1466 23.8086 17.0782 23.8086 16.0001ZM16 20.006C13.7832 20.006 11.9941 18.2169 11.9941 16.0001C11.9941 13.7833 13.7832 11.9942 16 11.9942C18.2168 11.9942 20.0058 13.7833 20.0058 16.0001C20.0058 18.2169 18.2168 20.006 16 20.006ZM20.1699 12.7657C19.6523 12.7657 19.2343 12.3477 19.2343 11.8302C19.2343 11.3126 19.6523 10.8946 20.1699 10.8946C20.6875 10.8946 21.1054 11.3126 21.1054 11.8302C21.1056 11.9531 21.0815 12.0748 21.0345 12.1884C20.9876 12.3019 20.9187 12.4051 20.8318 12.492C20.7449 12.579 20.6417 12.6479 20.5281 12.6948C20.4145 12.7418 20.2928 12.7659 20.1699 12.7657Z" fill="#FDFDFD"/>
<rect x="0.5" y="0.5" width="31" height="31" rx="15.5" stroke="#FDFDFD"/>
</svg>
