<svg width="81" height="28" viewBox="0 0 81 28" fill="none" xmlns="http://www.w3.org/2000/svg">
<g clip-path="url(#clip0_1_3724)">
<path fill-rule="evenodd" clip-rule="evenodd" d="M68.3795 0.0570337L71.0659 1.12862L74.5582 -0.0100098L68.3795 0.0570337Z" fill="#D7042F"/>
<path fill-rule="evenodd" clip-rule="evenodd" d="M68.0435 0.458808C68.6273 0.766875 70.2443 1.42955 70.5959 1.79857L71.0659 1.19573V1.12869L68.3795 0.0571012L68.1673 0.0532227L68.0435 0.458808Z" fill="#AD222D"/>
<path fill-rule="evenodd" clip-rule="evenodd" d="M71.0659 1.12862V1.19566L71.8047 1.73146L75.1626 0.525784L74.7599 -0.0100098H74.5582L71.0659 1.12862Z" fill="#DC4958"/>
<path fill-rule="evenodd" clip-rule="evenodd" d="M77.379 6.42113L80.8714 6.35408L75.9686 4.14331L77.379 6.42113Z" fill="#7EB033"/>
<path fill-rule="evenodd" clip-rule="evenodd" d="M63.2079 6.48831L65.4915 6.62239L67.3046 4.41162L63.2079 6.48831Z" fill="#0096B7"/>
<path fill-rule="evenodd" clip-rule="evenodd" d="M75.4314 4.34444L76.573 6.95692L77.379 6.48817V6.42113L75.9686 4.14331L75.4314 4.34444Z" fill="#5A891D"/>
<path fill-rule="evenodd" clip-rule="evenodd" d="M67.3047 4.41153L65.4915 6.6223V6.68879L66.3642 7.02401L68.1107 4.67915L67.5035 4.27246L67.3047 4.41153Z" fill="#29B5E4"/>
<path fill-rule="evenodd" clip-rule="evenodd" d="M77.379 6.42129V6.48833L77.5806 7.35934L81.0058 7.09117L81.0024 6.42683L80.8714 6.35425L77.379 6.42129Z" fill="#A1C24A"/>
<path fill-rule="evenodd" clip-rule="evenodd" d="M63.1407 6.95703L65.4915 7.35929V6.62237L63.2079 6.48828L63.0652 6.55588L63.1407 6.95703Z" fill="#00738F"/>
<path fill-rule="evenodd" clip-rule="evenodd" d="M72.1402 19.8864L72.2746 19.5517L76.573 6.95696L75.4314 4.34448C75.3076 4.53896 73.8016 11.3453 73.6794 12.1093C73.4822 13.3372 73.0562 14.7251 72.8068 15.9956C72.6718 16.6821 71.8608 19.4852 72.1402 19.8864Z" fill="#39772F"/>
<path fill-rule="evenodd" clip-rule="evenodd" d="M70.5959 1.79839L71.8047 10.6415V1.73135L71.0659 1.19556L70.5959 1.79839Z" fill="#D2072E"/>
<path fill-rule="evenodd" clip-rule="evenodd" d="M71.8047 10.9768V10.6416L70.5959 1.7985C70.2443 1.42949 68.6273 0.766808 68.0435 0.45874L71.608 10.897L71.8047 10.9768Z" fill="#731C18"/>
<path fill-rule="evenodd" clip-rule="evenodd" d="M71.8047 1.73155V10.9769C72.1385 11.1708 72.2707 10.2821 72.3685 9.93135C72.5018 9.45706 72.6351 9.08029 72.7718 8.59159C73.0301 7.66961 73.3156 6.84735 73.5778 5.91207C73.8355 4.99009 74.1199 4.16673 74.3838 3.23255C74.5743 2.55713 75.1132 1.1193 75.1626 0.525879L71.8047 1.73155Z" fill="#B12130"/>
<path fill-rule="evenodd" clip-rule="evenodd" d="M65.4915 7.35916L71.0659 15.8L66.3642 7.02394L65.4915 6.68872V7.35916Z" fill="#0094B5"/>
<path fill-rule="evenodd" clip-rule="evenodd" d="M12.0302 18.5466L11.9524 19.4165L11.2431 19.7351L11.2242 19.9534H14.1794V19.6853C13.5817 19.6853 13.3062 19.4747 13.3062 18.8818V16.537C13.3062 15.9131 13.6461 14.9291 14.2466 14.9291C14.6216 14.9291 14.4249 15.5989 14.851 15.5989H15.1865C15.5187 15.5989 15.7914 15.3274 15.7914 14.9961V14.9291C15.7914 14.5379 15.4448 14.1921 15.0526 14.1921H14.7838C13.94 14.1921 13.6717 14.9119 13.3062 15.3308V14.1921L11.2242 14.3262V14.5944H11.4925C11.8391 14.5944 12.0302 14.8731 12.0302 15.1972V18.5466Z" fill="white"/>
<path fill-rule="evenodd" clip-rule="evenodd" d="M71.2675 16.2689L71.0659 15.8001L65.4915 7.35929L63.1407 6.95703C64.1906 8.52064 65.982 10.1103 67.1436 11.6733C67.5974 12.2839 70.8465 16.1713 71.2675 16.2689Z" fill="#005471"/>
<path fill-rule="evenodd" clip-rule="evenodd" d="M66.3642 7.02406L71.0659 15.8001L71.2675 16.2688C71.3875 16.2256 71.4686 16.2201 71.4686 16.0012C71.4686 15.7879 68.3268 5.12856 68.1107 4.6792L66.3642 7.02406Z" fill="#00738F"/>
<path fill-rule="evenodd" clip-rule="evenodd" d="M31.7084 14.6609H32.3133V18.6137C32.3133 19.5628 32.7099 20.0876 33.6565 20.0876C34.0837 20.0876 35.1341 19.8316 35.1341 19.5518C35.1341 19.4099 35.1096 19.4631 35.0669 19.2836C34.8597 19.3927 34.598 19.6188 34.3281 19.6188C33.892 19.6188 33.6565 19.1883 33.6565 18.7478V14.6609H34.9324V14.3262H33.6565V12.5842H33.3204C32.9955 12.5842 32.9888 14.3262 31.91 14.3262H31.7084V14.6609Z" fill="white"/>
<path fill-rule="evenodd" clip-rule="evenodd" d="M76.573 6.95703L72.2746 19.5518L77.5806 7.35929L77.379 6.48828L76.573 6.95703Z" fill="#7CAD31"/>
<path fill-rule="evenodd" clip-rule="evenodd" d="M2.22418 12.2495H3.23183C3.97563 12.2495 4.575 13.1095 4.575 13.9239V14.6609C4.575 15.6078 3.80621 16.2688 2.82855 16.2688H2.22418V12.2495ZM5.98539 14.1251C5.98539 12.6601 4.93385 11.9143 3.50069 11.9143H0.0749904V12.1825C0.580485 12.1825 0.948218 12.3592 0.948218 12.8524V19.0154C0.948218 19.4492 0.646588 19.6188 0.209419 19.6188H0.00777626V19.9534H3.16462V19.6188H2.96298C2.43137 19.6188 2.22418 19.4121 2.22418 18.8818V16.537H3.29905C4.93329 16.537 5.98539 15.7829 5.98539 14.1251Z" fill="white"/>
<path fill-rule="evenodd" clip-rule="evenodd" d="M22.9778 14.6609H23.0445C23.7272 14.6609 23.8505 15.3745 23.8505 16.0677V19.1495C23.8505 19.5816 23.5488 19.6853 23.1117 19.6853V19.9534H25.9997V19.6853H25.7986C24.2165 19.6853 26.3546 14.1921 23.8505 14.1921H23.3133C22.6417 14.1921 21.824 14.739 21.7013 15.1972H21.5669C21.4574 14.7285 21.0241 14.1921 20.4925 14.1921H19.6865C18.9561 14.1921 18.5594 14.9407 18.2089 15.1972V14.1921L16.1269 14.3262V14.5944H16.3286C16.7635 14.5944 16.933 14.8953 16.933 15.3308V18.8148C16.933 19.1594 16.8569 19.6188 16.5297 19.6188H16.0597V19.9534H19.0149V19.6853H18.8133C18.2172 19.6853 18.2089 19.1389 18.2089 18.5466V16.604C18.2089 15.6372 18.6183 14.6609 19.5521 14.6609C20.0354 14.6609 20.3581 15.1789 20.3581 15.666V19.1495C20.3581 19.5816 20.0565 19.6853 19.6193 19.6853V19.9534H22.5073V19.6188H22.1718C21.8502 19.6188 21.7013 19.3916 21.7013 19.0824V16.1347C21.7013 15.487 22.2807 14.6609 22.9778 14.6609Z" fill="white"/>
<path fill-rule="evenodd" clip-rule="evenodd" d="M43.3275 15.8001H44.9396C45.9672 15.8001 46.8199 16.5414 46.8199 17.5415V17.8097C46.8199 18.9666 45.9517 19.6853 44.8051 19.6853H43.3275V15.8001ZM43.3275 12.1825H44.6707C45.7228 12.1825 46.5516 12.6701 46.5516 13.7234V13.9239C46.5516 15.0726 45.565 15.5319 44.4024 15.5319H43.3275V12.1825ZM44.9396 11.9143H41.5816V12.1154H41.8499C42.1749 12.1154 42.3877 12.3271 42.3877 12.6512V19.2835C42.3877 19.6221 41.9577 19.7523 41.5816 19.7523V19.8864H45.3428C46.6688 19.8864 47.8275 19.2569 47.8275 17.9438V17.6086C47.8275 16.3962 46.6193 15.666 45.4095 15.666C45.91 15.2321 47.5587 15.5851 47.5587 13.7234V13.5222C47.5587 12.4135 46.1139 11.9143 44.9396 11.9143Z" fill="white"/>
<path fill-rule="evenodd" clip-rule="evenodd" d="M77.5806 7.35924L72.2746 19.5517L72.1402 19.8864C72.5696 20.1357 73.2195 18.8747 73.43 18.5599C73.8083 17.9937 74.1322 17.4717 74.5177 16.8988C75.2659 15.7873 75.9336 14.7473 76.6802 13.6292C78.1439 11.4367 79.5471 9.26416 81.0058 7.09106L77.5806 7.35924Z" fill="#6B8F16"/>
<path fill-rule="evenodd" clip-rule="evenodd" d="M27.6117 18.1449C27.6117 17.3404 28.4816 16.8717 29.2909 16.8717H29.6936V18.2114C29.6936 18.9262 29.1493 19.6188 28.4177 19.6188C27.9783 19.6188 27.6117 19.0303 27.6117 18.5466V18.1449ZM27.4772 16.0677C28.3927 16.0677 27.5239 14.3933 28.8876 14.3933H28.9548C29.4381 14.3933 29.6936 14.8476 29.6936 15.3308V16.604C28.1616 16.604 26.2013 16.9354 26.2013 18.4125V18.5466C26.2013 19.4919 26.7918 19.898 27.6633 20.0366C28.9398 20.2388 29.2115 19.4298 29.7609 19.2836C29.7725 19.8072 30.2391 19.9534 30.7685 19.9534H31.7084V19.6853C30.9268 19.6853 30.9685 19.2442 30.9696 18.4796C30.9713 17.8319 30.9696 17.1847 30.9696 16.537C30.9696 15.0615 30.9068 14.1921 29.4253 14.1921H28.6865C27.7716 14.1921 26.6046 14.6565 26.6046 15.5319V15.666C26.6046 15.9414 26.9734 16.0677 27.2762 16.0677H27.4772Z" fill="white"/>
<path fill-rule="evenodd" clip-rule="evenodd" d="M36.88 18.1449C36.88 17.2761 37.8065 16.8717 38.6937 16.8717H38.962V17.9438C38.962 18.8215 38.5448 19.6188 37.686 19.6188C37.3099 19.6188 36.88 19.0647 36.88 18.6807V18.1449ZM36.8128 16.0677C37.5627 16.0677 36.8344 14.3933 38.1559 14.3933H38.2232C38.7986 14.3933 38.962 15.005 38.962 15.5989V16.604H38.5592C36.8917 16.604 35.4696 17.0451 35.4696 18.7478C35.4696 19.3445 36.2656 20.0875 36.88 20.0875H37.0816C38.0793 20.0875 38.382 19.6709 38.962 19.2836C39.0031 19.7767 39.5013 19.9534 40.0368 19.9534H40.9773V19.6853C40.1518 19.6853 40.2374 19.2653 40.2385 18.4796C40.239 17.8546 40.2385 17.229 40.2385 16.604C40.2385 15.8233 40.3368 15.3834 40.0363 14.8626C39.8346 14.5124 39.3652 14.1921 38.8281 14.1921H37.9549C37.0422 14.1921 35.8057 14.7091 35.8057 15.5319C35.8057 15.9912 36.2223 16.0677 36.6789 16.0677H36.8128Z" fill="white"/>
<path fill-rule="evenodd" clip-rule="evenodd" d="M49.3052 18.5466C49.3052 17.1437 50.6644 16.7381 52.0587 16.7381V17.6086C52.0587 18.7118 51.4338 19.6853 50.38 19.6853H50.2456C49.7279 19.6853 49.3052 19.0858 49.3052 18.5466ZM64.7911 14.7667C65.1577 14.5517 65.4105 14.6952 65.4916 14.3933H63.0735V14.5274C63.3924 14.5274 63.8123 14.6509 63.8123 14.9291C63.8123 15.2992 61.7481 17.5504 61.5287 17.6086V13.924L61.6098 11.8484L59.9839 11.9143V12.1155H60.3872C60.6044 12.1155 60.7227 12.3587 60.7227 12.5842V19.2165C60.7227 19.5407 60.5105 19.7523 60.1855 19.7523H59.6484C58.1219 19.7523 60.5161 14.1921 57.4992 14.1921C55.8288 14.1921 56.0077 14.9839 55.35 15.4649V14.2592L53.8063 14.3445L53.8052 14.5274C54.3129 14.5384 54.544 14.749 54.544 15.2643V19.1495C54.544 19.5141 54.3051 19.7523 53.9396 19.7523H53.4019C53.1036 19.7523 52.9836 19.595 52.8647 19.4176C52.8647 18.279 52.8592 17.1393 52.8653 16.0006C52.8714 14.7861 52.5387 14.1921 51.3199 14.1921H50.85C49.9712 14.1921 48.768 14.6299 48.768 15.3978V15.5989C48.768 15.7535 48.8147 15.8001 48.9691 15.8001H49.4396C49.5901 15.8001 49.5868 15.7469 49.7079 15.666C49.7079 14.8604 50.0023 14.3262 50.7828 14.3262C51.6721 14.3262 52.0587 14.7152 52.0587 15.5989V16.0012L51.9837 16.6029L51.656 16.604C50.4134 16.604 48.4319 17.0711 48.4319 18.2114V18.8148C48.4319 19.3057 49.0813 19.9534 49.574 19.9534H50.4467C51.0938 19.9534 51.6821 19.2004 52.0587 18.9483C52.0587 19.6105 52.1354 19.9534 52.7975 19.9534H56.2227V19.7523H55.9544C55.5283 19.7523 55.35 19.3694 55.35 18.9483V16.6711C55.35 15.7341 55.9794 14.5274 56.8948 14.5274H57.2975C58.0197 14.5274 58.3052 15.4471 58.3052 16.2018V18.4125C58.3052 19.027 58.3091 19.7523 57.7003 19.7523H57.432V19.9534H62.4019V19.7523H62.1331C61.707 19.7523 61.5287 19.3694 61.5287 18.9483V18.1444C61.5287 17.9394 62.3492 17.0556 62.5364 17.0057L64.2612 19.9263L65.6927 19.9534V19.7523C64.8933 19.6858 64.5722 18.8082 64.1884 18.2386C64.0334 18.0081 63.0735 16.5497 63.0735 16.4029C63.0735 16.4024 64.029 15.3457 64.1301 15.246C64.3284 15.0515 64.5372 14.9152 64.7911 14.7667Z" fill="white"/>
<path fill-rule="evenodd" clip-rule="evenodd" d="M7.39578 16.4029C7.39578 15.584 7.84628 14.3933 8.60452 14.3933C9.43331 14.3933 9.67939 15.7014 9.67939 16.604H7.39578V16.4029ZM8.80616 19.6188C7.79851 19.6188 7.32856 17.9698 7.32856 16.8717H11.0226V16.6711C11.0226 15.2183 10.1899 14.1921 8.73895 14.1921H8.53786C5.04994 14.1921 5.00606 20.0205 8.53786 20.0205H9.00781C9.82438 20.0205 10.9554 19.206 10.9554 18.6137C10.9554 18.4763 10.817 18.4907 10.6871 18.4796C10.5582 18.9594 9.84326 19.6188 9.20945 19.6188H8.80616Z" fill="white"/>
<path fill-rule="evenodd" clip-rule="evenodd" d="M2.42582 23.0351C2.42582 22.8805 2.37916 22.834 2.22418 22.834C2.06697 22.834 1.95588 22.9454 1.95588 23.1022C1.95588 23.2562 2.00254 23.3027 2.15696 23.3027H2.22418C2.37916 23.3027 2.42582 23.2562 2.42582 23.1022V23.0351Z" fill="white"/>
<path fill-rule="evenodd" clip-rule="evenodd" d="M7.66463 23.0351C7.66463 22.8805 7.61797 22.834 7.46299 22.834C7.30578 22.834 7.19413 22.9454 7.19413 23.1022C7.19413 23.2562 7.24135 23.3027 7.39577 23.3027H7.46299C7.61797 23.3027 7.66463 23.2562 7.66463 23.1022V23.0351Z" fill="white"/>
<path fill-rule="evenodd" clip-rule="evenodd" d="M19.1494 23.0351C19.1494 22.9537 19.0105 22.834 18.8805 22.834C18.7233 22.834 18.6122 22.9454 18.6122 23.1022C18.6122 23.1836 18.7511 23.3027 18.8805 23.3027C19.0377 23.3027 19.1494 23.1919 19.1494 23.0351Z" fill="#4C4C4C"/>
<path fill-rule="evenodd" clip-rule="evenodd" d="M25.518 23.7687C25.2892 23.7161 25.2142 23.6379 24.9253 23.6379H24.8581C24.632 23.6379 24.321 23.9377 24.321 24.2408V24.3749C24.321 24.8453 25.1936 24.7888 25.1936 25.1788V25.2459C25.1936 25.4027 25.0825 25.5135 24.9253 25.5135H24.7237C24.3671 25.5135 24.2665 25.145 24.2537 25.7146C24.4043 25.7495 24.4082 25.7817 24.5893 25.7817H24.9925C25.3636 25.7817 25.5969 25.4797 25.5969 25.1118C25.5969 24.5583 24.6565 24.6087 24.6565 24.2408C24.6565 24.084 24.7681 23.9726 24.9253 23.9726H25.127C25.3081 23.9726 25.3119 24.0047 25.448 24.0358L25.518 23.7687Z" fill="white"/>
<path fill-rule="evenodd" clip-rule="evenodd" d="M3.43347 23.5039C3.43347 23.2784 3.55179 23.0352 3.76899 23.0352H4.10506C4.10006 22.8202 4.12672 22.7 3.90342 22.7H3.76899C3.33849 22.7 3.03019 23.0939 3.03019 23.5039V23.705H2.76189V24.0397H3.03019V25.7817H3.43347V23.9727H3.90342V23.705H3.43347V23.5039Z" fill="white"/>
<path fill-rule="evenodd" clip-rule="evenodd" d="M4.44057 24.509C4.46946 24.1671 4.68277 23.9061 5.04495 23.9061C5.35657 23.9061 5.50767 24.1748 5.51544 24.509H4.44057ZM5.04495 25.5135C4.62055 25.5135 4.44057 25.216 4.44057 24.7766H5.85096V24.509C5.85096 24.0646 5.53822 23.6379 5.11216 23.6379H4.97829C4.46002 23.6379 4.03784 24.2375 4.03784 24.7766V24.8436C4.03784 25.2841 4.45946 25.7817 4.91107 25.7817H5.24659C5.47823 25.7817 5.50656 25.7324 5.71653 25.7146V25.4465C5.50656 25.4642 5.47823 25.5135 5.24659 25.5135H5.04495Z" fill="white"/>
<path fill-rule="evenodd" clip-rule="evenodd" d="M0.00777626 25.7818H1.6198V25.4466H0.411061V22.9011H0.00777626V25.7818Z" fill="white"/>
<path fill-rule="evenodd" clip-rule="evenodd" d="M2.02309 25.7818H2.42582V23.7051H2.02309V25.7818Z" fill="#4C4C4C"/>
<path fill-rule="evenodd" clip-rule="evenodd" d="M7.26134 25.7818H7.59741V23.7051H7.26134V25.7818Z" fill="white"/>
<path fill-rule="evenodd" clip-rule="evenodd" d="M9.39886 23.7687C9.17611 23.7172 9.18445 23.6379 8.94059 23.6379H8.73894C8.58841 23.6379 8.20179 23.9155 8.20179 24.1067V24.3749C8.20179 24.8453 9.07501 24.7888 9.07501 25.1788V25.2459C9.07501 25.4027 8.96336 25.5135 8.80616 25.5135H8.60452C8.4001 25.5135 8.33399 25.4492 8.20179 25.38L8.12069 25.7113C8.28511 25.7495 8.289 25.7817 8.47064 25.7817H8.87337C9.20555 25.7817 9.47774 25.5096 9.47774 25.1788V25.1118C9.47774 24.5904 8.53786 24.586 8.53786 24.2408C8.53786 24.084 8.64895 23.9726 8.80616 23.9726H9.0078C9.18889 23.9726 9.19278 24.0047 9.32887 24.0358L9.39886 23.7687Z" fill="white"/>
<path fill-rule="evenodd" clip-rule="evenodd" d="M13.6417 24.6431C13.6417 24.4132 13.8161 24.0397 14.045 24.0397H14.3138V23.638L14.2649 23.5632L13.5617 24.0198L13.575 23.7051H13.3062V25.7818H13.6417V24.6431Z" fill="white"/>
<path fill-rule="evenodd" clip-rule="evenodd" d="M14.9182 24.509C14.9254 24.1782 15.1154 23.9061 15.3881 23.9061C15.6337 23.9061 15.9253 24.0906 15.9253 24.3078V24.509H14.9182ZM15.5226 25.5135C15.096 25.5135 14.8604 25.2093 14.851 24.7766H16.3286V24.509C16.3286 24.1056 15.9575 23.6379 15.5226 23.6379H15.3881C14.9765 23.6379 14.5149 24.0978 14.5149 24.509V24.8436C14.5149 25.3462 14.8427 25.7817 15.3209 25.7817H15.8581C16.1503 25.7817 16.1875 25.7384 16.1942 25.4465L15.592 25.5285L15.5226 25.5135Z" fill="white"/>
<path fill-rule="evenodd" clip-rule="evenodd" d="M18.2845 23.7742C18.1778 23.7249 17.8828 23.6379 17.739 23.6379C17.1679 23.6379 16.6641 24.0651 16.6641 24.643V24.9777C16.6641 25.38 17.0668 25.7817 17.4701 25.7817H17.8734C18.165 25.7817 18.2022 25.7384 18.2089 25.4465C17.9989 25.4642 17.9706 25.5135 17.739 25.5135C17.2835 25.5135 17.0002 25.1484 17.0002 24.7095C17.0002 24.3256 17.289 23.9726 17.6718 23.9726H17.8734C18.0545 23.9726 18.0584 24.0047 18.2006 24.0374L18.2845 23.7742Z" fill="white"/>
<path fill-rule="evenodd" clip-rule="evenodd" d="M18.6789 25.7818H19.0821V23.7051H18.6789V25.7818Z" fill="white"/>
<path fill-rule="evenodd" clip-rule="evenodd" d="M19.9554 24.576C19.9554 24.2519 20.1459 23.9726 20.4925 23.9726H20.6942C20.9797 23.9726 21.1641 24.3876 21.1641 24.7095V24.8436C21.1641 25.1822 20.9219 25.5135 20.5597 25.5135H20.4253C20.2115 25.5135 19.9554 25.1722 19.9554 24.9107V24.576ZM20.6942 25.7817C21.2535 25.7817 21.5668 25.2442 21.5668 24.643V24.576C21.5668 24.1178 21.0863 23.6379 20.627 23.6379H20.4925C19.9587 23.6379 19.5521 24.1466 19.5521 24.7095V24.7766C19.5521 25.2791 19.8593 25.7817 20.3581 25.7817H20.6942Z" fill="white"/>
<path fill-rule="evenodd" clip-rule="evenodd" d="M22.0373 25.1789C22.0373 25.5097 22.3095 25.7818 22.6417 25.7818H22.8434C23.1805 25.7818 23.2328 25.5901 23.4477 25.4465V25.7818H23.7832V23.7051H23.3805V25.0448C23.3805 25.2665 23.0678 25.5136 22.8434 25.5136C22.5078 25.5136 22.3729 25.1944 22.3729 24.8437V23.7051H22.0373V25.1789Z" fill="white"/>
<path fill-rule="evenodd" clip-rule="evenodd" d="M11.2242 24.576C11.2242 24.3145 11.4803 23.9726 11.6941 23.9726H11.8286C12.1907 23.9726 12.4329 24.3039 12.4329 24.643V24.7095C12.4329 25.1306 12.2546 25.5135 11.8286 25.5135H11.6941C11.4497 25.5135 11.2242 25.1871 11.2242 24.9107V24.576ZM12.0302 25.7817C12.4068 25.7817 12.769 25.339 12.769 24.9777V24.4419C12.769 24.0396 12.3663 23.6379 11.963 23.6379C11.5431 23.6379 11.402 23.8762 11.157 24.0396V23.705H10.8209V26.6527H11.2242V25.5135C11.4108 25.6387 11.4564 25.7817 11.7614 25.7817H12.0302Z" fill="white"/>
<path fill-rule="evenodd" clip-rule="evenodd" d="M11.7614 27.9925C12.2469 27.9925 14.1872 27.5925 14.6649 27.4722C15.4137 27.2838 16.7696 27.0467 17.569 27.0993C18.6966 27.1741 19.5076 27.1204 20.6314 27.2506C21.8229 27.3891 22.5295 27.4129 23.5822 27.6573L23.7788 27.578L23.7832 27.3897C23.2055 27.3415 22.4745 26.8733 21.6963 26.7918C20.7158 26.6893 20.3953 26.5857 19.4177 26.5857C17.8834 26.5857 16.5941 26.7458 15.0521 26.8533C13.7617 26.9425 12.1563 27.5237 10.8881 27.5237C10.9576 27.7825 11.0948 27.9925 11.4258 27.9925H11.7614Z" fill="#D80412"/>
</g>
<defs>
<clipPath id="clip0_1_3724">
<rect width="81" height="28" fill="white"/>
</clipPath>
</defs>
</svg>
