<svg width="55" height="24" viewBox="0 0 55 24" fill="none" xmlns="http://www.w3.org/2000/svg">
<path fill-rule="evenodd" clip-rule="evenodd" d="M2.63515 3.73072H20.2422C21.4121 3.73072 22.3693 4.66053 22.3693 5.79696V17.7697C22.3693 18.9061 21.4121 19.8359 20.2422 19.8359H2.12703C0.957163 19.8359 0 18.9061 0 17.7697V2.98457C0 2.44506 0.460856 2.07772 1.00443 2.00885L17.2408 0C17.7962 0 18.2452 0.436207 18.2452 0.975726V2.65168H1.61891C1.61891 3.35191 1.83161 3.7422 2.63515 3.7422V3.73072ZM12.514 16.8399C11.0369 17.1154 9.13441 16.6333 8.09453 15.5542C7.62186 15.0721 8.37813 14.326 8.85081 14.8196C9.548 15.5427 10.7888 15.8871 11.805 15.8642C13.0931 15.8412 14.2511 14.6933 13.5066 13.4191C12.4904 11.6513 9.98522 12.1449 8.70901 10.7674C7.66912 9.65395 8.16543 7.88616 9.38256 7.10558C10.6588 6.29056 12.8567 6.325 13.8966 7.48439C14.3456 7.98948 13.5894 8.72414 13.1403 8.21906C12.2895 7.27777 10.2925 7.40404 9.53618 8.37977C8.44903 9.76874 10.0798 10.5149 11.2142 10.8478C12.774 11.3069 14.4993 12.1449 14.7829 13.8783C15.0074 15.2787 13.8966 16.5759 12.514 16.8399Z" fill="#EE4E2C"/>
<path fill-rule="evenodd" clip-rule="evenodd" d="M12.5027 16.8516C11.0256 17.1271 9.12313 16.645 8.08324 15.5659C7.61057 15.0838 8.36685 14.3377 8.83952 14.8313C9.53672 15.5545 10.7775 15.8988 11.7937 15.8759C13.0818 15.8529 14.2398 14.705 13.4954 13.4308C12.4791 11.663 9.97394 12.1566 8.69772 10.7791C7.65784 9.66563 8.15414 7.89784 9.37128 7.11726C10.6475 6.30223 12.8454 6.33667 13.8853 7.49607C14.3344 8.00115 13.5781 8.73582 13.129 8.23074C12.2782 7.28944 10.2812 7.41571 9.5249 8.39144C8.43775 9.78043 10.0685 10.5266 11.2029 10.8595C12.7627 11.3186 14.488 12.1566 14.7834 13.89C15.0079 15.2904 13.8971 16.5876 12.5146 16.8516H12.5027Z" fill="#FEFEFE"/>
<path d="M42.8243 2.99652C42.198 2.99652 41.6308 3.26053 41.2409 3.66228V3.18018C41.2409 2.74399 40.5318 2.74399 40.5318 3.18018V8.82765C40.5318 9.26383 41.2409 9.26383 41.2409 8.82765V6.31383C41.6308 6.72706 42.198 6.97959 42.8243 6.97959C43.9942 6.97959 44.9395 6.08426 44.9395 4.98232C44.9395 3.88037 43.9942 2.98504 42.8243 2.98504V2.99652ZM42.8243 6.26792C42.0799 6.26792 41.4654 5.69399 41.4654 4.9938C41.4654 4.36247 41.9617 3.83446 42.5998 3.73115H42.6116C42.6825 3.71967 42.7416 3.71967 42.8125 3.71967C43.3679 3.71967 43.8406 4.02959 44.0533 4.47726C44.1242 4.63796 44.1714 4.81014 44.1714 4.98232C44.1714 5.68251 43.5688 6.25644 42.8243 6.25644V6.26792ZM37.5658 6.99107C36.3959 6.99107 35.4506 6.09574 35.4506 4.9938C35.4506 3.89185 36.3959 2.99652 37.5658 2.99652C38.7357 2.99652 39.681 3.89185 39.681 4.9938C39.681 6.09574 38.7357 6.99107 37.5658 6.99107ZM37.5658 3.71967C36.8214 3.71967 36.2069 4.2936 36.2069 4.9938C36.2069 5.69399 36.8095 6.26792 37.5658 6.26792C38.3103 6.26792 38.9248 5.69399 38.9248 4.9938C38.9248 4.2936 38.3221 3.71967 37.5658 3.71967ZM54.6057 4.95936C54.5939 4.04107 54.0858 3.21461 53.0577 3.03096C52.1714 2.87026 51.1316 3.31792 50.7534 4.09847C50.3635 4.91345 50.5289 6.03835 51.297 6.6008C52.136 7.22064 53.4477 7.02551 54.3103 6.56636C54.7121 6.35975 54.3576 5.77434 53.944 5.98095C53.4004 6.26792 52.6796 6.40566 52.0769 6.222C51.6161 6.07278 51.3561 5.70547 51.2852 5.29224H54.2512C54.4403 5.29224 54.6057 5.14302 54.6057 4.95936ZM51.3088 4.62648C51.3088 4.60352 51.3206 4.58057 51.3324 4.55761C51.4979 4.00664 52.0887 3.69671 52.6796 3.67376C53.3531 3.6508 53.7431 4.09847 53.8613 4.62648H51.3206H51.3088ZM49.8553 4.97084C49.8435 4.05255 49.3354 3.22609 48.3073 3.04244C47.4211 2.88174 46.3812 3.3294 46.003 4.10994C45.6131 4.92492 45.7785 6.04983 46.5466 6.61228C47.3856 7.23212 48.6973 7.03698 49.5599 6.57784C49.9617 6.37123 49.6072 5.78582 49.1936 5.99243C48.65 6.2794 47.9292 6.41714 47.3265 6.23348C46.8657 6.08426 46.6175 5.71695 46.5348 5.30372H49.5008C49.6899 5.30372 49.8553 5.1545 49.8553 4.97084ZM46.5584 4.63796C46.5584 4.615 46.5703 4.59204 46.5821 4.56909C46.7475 4.01812 47.3384 3.70819 47.9292 3.68524C48.6028 3.66228 48.9927 4.10994 49.1109 4.63796H46.5703H46.5584ZM34.6116 4.32804V6.65819C34.6116 7.09438 33.9026 7.09438 33.9026 6.65819V4.37395C33.879 3.92629 33.4772 3.70819 33.4654 3.70819C32.9572 3.4901 32.0355 3.59341 31.492 4.27064V6.66967C31.492 7.10586 30.7829 7.10586 30.7829 6.66967V0.677846C30.7829 0.241659 31.492 0.241659 31.492 0.677846V3.37531C32.3664 2.81286 33.4772 2.87026 33.9971 3.21461C33.9971 3.21461 34.6234 3.54749 34.6116 4.33952V4.32804ZM29.6013 0.941853C28.9041 0.195745 27.4388 0.172788 26.588 0.700803C25.7726 1.20586 25.4417 2.33076 26.1389 3.05391C27.0016 3.94924 28.6677 3.62784 29.3413 4.76422C29.8258 5.5792 29.0577 6.31383 28.2069 6.33679C27.5333 6.34827 26.7061 6.13018 26.2335 5.65955C25.9144 5.34963 25.4181 5.82025 25.7253 6.13018C26.4107 6.83037 27.6869 7.12881 28.6795 6.95663C29.6013 6.79593 30.3457 5.958 30.1921 5.05119C30.003 3.93777 28.845 3.39827 27.8051 3.09983C27.0488 2.88174 25.9617 2.41111 26.6825 1.51578C27.1906 0.895939 28.5259 0.815589 29.0931 1.41248C29.4004 1.73388 29.8967 1.26325 29.6013 0.941853Z" fill="#EE4E2C"/>
<path fill-rule="evenodd" clip-rule="evenodd" d="M48.201 23.3145H45.9321L48.3546 18.8603L44.3723 11.5593H46.8302L49.5835 16.6103L52.3369 11.5593H54.6057L48.201 23.3145ZM25.6307 19.8361H27.5333V16.4611H30.0975C32.7563 16.4611 34.907 14.6473 34.907 12.4202C34.907 10.1932 32.7563 8.37939 30.0975 8.37939H25.6426C25.6426 12.2021 25.6426 16.0134 25.6426 19.8361H25.6307ZM27.5333 14.6243V10.2276H30.0975C31.5392 10.2276 32.709 11.2149 32.709 12.4202C32.709 13.6371 31.5392 14.6129 30.0975 14.6129H27.5333V14.6243ZM42.0089 11.6396H43.6751V19.7672H42.0089V18.8489C41.2645 19.4688 40.3073 19.8361 39.2556 19.8361C36.904 19.8361 35.0015 17.9879 35.0015 15.7034C35.0015 13.419 36.904 11.5707 39.2556 11.5707C40.3073 11.5707 41.2763 11.9381 42.0089 12.558V11.6396ZM39.2556 13.3157C40.6145 13.3157 41.7253 14.3833 41.7253 15.7149C41.7253 17.0351 40.6264 18.1142 39.2556 18.1142C37.8967 18.1142 36.7859 17.0465 36.7859 15.7149C36.7859 14.3947 37.8848 13.3157 39.2556 13.3157Z" fill="#EE4E2C"/>
</svg>
