<svg width="32" height="32" viewBox="0 0 32 32" fill="none" xmlns="http://www.w3.org/2000/svg">
<g clip-path="url(#clip0_1_3823)">
<path d="M23.2222 14.5597C21.8246 14.563 20.4613 14.1339 19.3248 13.3331V18.9181C19.3244 19.9525 19.0032 20.9622 18.4042 21.812C17.8051 22.6619 16.9568 23.3115 15.9726 23.6739C14.9884 24.0364 13.9152 24.0944 12.8966 23.8402C11.878 23.5861 10.9625 23.0319 10.2725 22.2517C9.58249 21.4716 9.15089 20.5026 9.03541 19.4745C8.91993 18.4464 9.12606 17.408 9.62626 16.4983C10.1264 15.5886 10.8969 14.8509 11.8345 14.3839C12.7721 13.9168 13.8322 13.7427 14.873 13.8847V16.6937C14.3967 16.5463 13.8853 16.5507 13.4117 16.7064C12.9381 16.8622 12.5266 17.1612 12.236 17.5609C11.9454 17.9606 11.7905 18.4404 11.7934 18.9319C11.7963 19.4234 11.957 19.9014 12.2524 20.2977C12.5478 20.694 12.9628 20.9882 13.4382 21.1385C13.9136 21.2887 14.4251 21.2872 14.8996 21.1342C15.3741 20.9812 15.7874 20.6845 16.0804 20.2866C16.3734 19.8886 16.5311 19.4096 16.5311 18.9181V8H19.3248C19.3228 8.23223 19.3426 8.46415 19.3838 8.69281C19.4809 9.20328 19.6828 9.68888 19.977 10.1199C20.2713 10.551 20.6518 10.9184 21.0953 11.1997C21.7262 11.6103 22.4659 11.8292 23.2222 11.8291V14.5597Z" fill="#FDFDFD"/>
</g>
<rect x="0.5" y="0.5" width="31" height="31" rx="15.5" stroke="#FDFDFD"/>
<defs>
<clipPath id="clip0_1_3823">
<rect width="14.2222" height="16" fill="white" transform="translate(9 8)"/>
</clipPath>
</defs>
</svg>
