<svg width="32" height="32" viewBox="0 0 32 32" fill="none" xmlns="http://www.w3.org/2000/svg">
<g clip-path="url(#clip0_1_3818)">
<path d="M25.5834 11.4224C25.4701 11.0184 25.2495 10.6527 24.945 10.3641C24.6319 10.0666 24.2482 9.85376 23.83 9.74573C22.265 9.33323 15.995 9.33323 15.995 9.33323C13.3811 9.30349 10.7679 9.4343 8.17003 9.7249C7.75185 9.84091 7.36883 10.0585 7.05503 10.3582C6.74669 10.6549 6.52336 11.0207 6.40669 11.4216C6.12644 12.9314 5.99027 14.4644 6.00003 15.9999C5.99003 17.5341 6.12586 19.0666 6.40669 20.5782C6.52086 20.9774 6.74336 21.3416 7.05253 21.6357C7.36169 21.9299 7.74669 22.1424 8.17003 22.2549C9.75586 22.6666 15.995 22.6666 15.995 22.6666C18.6122 22.6963 21.2288 22.5655 23.83 22.2749C24.2482 22.1669 24.6319 21.9541 24.945 21.6566C25.2494 21.368 25.4698 21.0022 25.5825 20.5982C25.8701 19.089 26.0099 17.5554 26 16.0191C26.0217 14.4762 25.882 12.9354 25.5834 11.4216V11.4224ZM14.0017 18.8532V13.1474L19.2184 16.0007L14.0017 18.8532Z" fill="#FDFDFD"/>
</g>
<rect x="0.5" y="0.5" width="31" height="31" rx="15.5" stroke="#FDFDFD"/>
<defs>
<clipPath id="clip0_1_3818">
<rect width="20" height="20" fill="white" transform="translate(6 6)"/>
</clipPath>
</defs>
</svg>
