<svg width="423" height="278" viewBox="0 0 423 278" fill="none" xmlns="http://www.w3.org/2000/svg">
<circle cx="2.38874" cy="188.347" r="2.38874" fill="url(#paint0_linear_1_4488)"/>
<circle cx="14.8104" cy="188.347" r="2.38874" fill="url(#paint1_linear_1_4488)"/>
<circle cx="27.2299" cy="188.347" r="2.38874" fill="url(#paint2_linear_1_4488)"/>
<circle cx="39.6538" cy="188.347" r="2.38874" fill="url(#paint3_linear_1_4488)"/>
<circle cx="52.0756" cy="188.347" r="2.38874" fill="url(#paint4_linear_1_4488)"/>
<circle cx="64.4949" cy="188.347" r="2.38874" fill="url(#paint5_linear_1_4488)"/>
<circle cx="76.9167" cy="188.347" r="2.38874" fill="url(#paint6_linear_1_4488)"/>
<circle cx="89.3406" cy="188.347" r="2.38874" fill="url(#paint7_linear_1_4488)"/>
<circle cx="2.38874" cy="200.768" r="2.38874" fill="url(#paint8_linear_1_4488)"/>
<circle cx="14.8104" cy="200.768" r="2.38874" fill="url(#paint9_linear_1_4488)"/>
<circle cx="27.2299" cy="200.768" r="2.38874" fill="url(#paint10_linear_1_4488)"/>
<circle cx="39.6538" cy="200.768" r="2.38874" fill="url(#paint11_linear_1_4488)"/>
<circle cx="52.0756" cy="200.768" r="2.38874" fill="url(#paint12_linear_1_4488)"/>
<circle cx="64.4949" cy="200.768" r="2.38874" fill="url(#paint13_linear_1_4488)"/>
<circle cx="76.9167" cy="200.768" r="2.38874" fill="url(#paint14_linear_1_4488)"/>
<circle cx="89.3406" cy="200.768" r="2.38874" fill="url(#paint15_linear_1_4488)"/>
<circle cx="2.38874" cy="213.19" r="2.38874" fill="url(#paint16_linear_1_4488)"/>
<circle cx="14.8104" cy="213.19" r="2.38874" fill="url(#paint17_linear_1_4488)"/>
<circle cx="27.2299" cy="213.19" r="2.38874" fill="url(#paint18_linear_1_4488)"/>
<circle cx="39.6538" cy="213.19" r="2.38874" fill="url(#paint19_linear_1_4488)"/>
<circle cx="52.0756" cy="213.19" r="2.38874" fill="url(#paint20_linear_1_4488)"/>
<circle cx="64.4949" cy="213.19" r="2.38874" fill="url(#paint21_linear_1_4488)"/>
<circle cx="76.9167" cy="213.19" r="2.38874" fill="url(#paint22_linear_1_4488)"/>
<circle cx="89.3406" cy="213.19" r="2.38874" fill="url(#paint23_linear_1_4488)"/>
<circle cx="2.38874" cy="225.611" r="2.38874" fill="url(#paint24_linear_1_4488)"/>
<circle cx="14.8104" cy="225.611" r="2.38874" fill="url(#paint25_linear_1_4488)"/>
<circle cx="27.2299" cy="225.611" r="2.38874" fill="url(#paint26_linear_1_4488)"/>
<circle cx="39.6538" cy="225.611" r="2.38874" fill="url(#paint27_linear_1_4488)"/>
<circle cx="52.0756" cy="225.611" r="2.38874" fill="url(#paint28_linear_1_4488)"/>
<circle cx="64.4949" cy="225.611" r="2.38874" fill="url(#paint29_linear_1_4488)"/>
<circle cx="76.9167" cy="225.611" r="2.38874" fill="url(#paint30_linear_1_4488)"/>
<circle cx="89.3406" cy="225.611" r="2.38874" fill="url(#paint31_linear_1_4488)"/>
<circle cx="2.38874" cy="238.033" r="2.38874" fill="url(#paint32_linear_1_4488)"/>
<circle cx="14.8104" cy="238.033" r="2.38874" fill="url(#paint33_linear_1_4488)"/>
<circle cx="27.2299" cy="238.033" r="2.38874" fill="url(#paint34_linear_1_4488)"/>
<circle cx="39.6538" cy="238.033" r="2.38874" fill="url(#paint35_linear_1_4488)"/>
<circle cx="52.0756" cy="238.033" r="2.38874" fill="url(#paint36_linear_1_4488)"/>
<circle cx="64.4949" cy="238.033" r="2.38874" fill="url(#paint37_linear_1_4488)"/>
<circle cx="76.9167" cy="238.033" r="2.38874" fill="url(#paint38_linear_1_4488)"/>
<circle cx="89.3406" cy="238.033" r="2.38874" fill="url(#paint39_linear_1_4488)"/>
<circle cx="2.38874" cy="250.454" r="2.38874" fill="url(#paint40_linear_1_4488)"/>
<circle cx="14.8104" cy="250.454" r="2.38874" fill="url(#paint41_linear_1_4488)"/>
<circle cx="27.2299" cy="250.454" r="2.38874" fill="url(#paint42_linear_1_4488)"/>
<circle cx="39.6538" cy="250.454" r="2.38874" fill="url(#paint43_linear_1_4488)"/>
<circle cx="52.0756" cy="250.454" r="2.38874" fill="url(#paint44_linear_1_4488)"/>
<circle cx="64.4949" cy="250.454" r="2.38874" fill="url(#paint45_linear_1_4488)"/>
<circle cx="76.9167" cy="250.454" r="2.38874" fill="url(#paint46_linear_1_4488)"/>
<circle cx="89.3406" cy="250.454" r="2.38874" fill="url(#paint47_linear_1_4488)"/>
<circle cx="2.38874" cy="262.876" r="2.38874" fill="url(#paint48_linear_1_4488)"/>
<circle cx="14.8104" cy="262.876" r="2.38874" fill="url(#paint49_linear_1_4488)"/>
<circle cx="27.2299" cy="262.876" r="2.38874" fill="url(#paint50_linear_1_4488)"/>
<circle cx="39.6538" cy="262.876" r="2.38874" fill="url(#paint51_linear_1_4488)"/>
<circle cx="52.0756" cy="262.876" r="2.38874" fill="url(#paint52_linear_1_4488)"/>
<circle cx="64.4949" cy="262.876" r="2.38874" fill="url(#paint53_linear_1_4488)"/>
<circle cx="76.9167" cy="262.876" r="2.38874" fill="url(#paint54_linear_1_4488)"/>
<circle cx="89.3406" cy="262.876" r="2.38874" fill="url(#paint55_linear_1_4488)"/>
<circle cx="2.38874" cy="275.297" r="2.38874" fill="url(#paint56_linear_1_4488)"/>
<circle cx="14.8104" cy="275.297" r="2.38874" fill="url(#paint57_linear_1_4488)"/>
<circle cx="27.2299" cy="275.297" r="2.38874" fill="url(#paint58_linear_1_4488)"/>
<circle cx="39.6538" cy="275.297" r="2.38874" fill="url(#paint59_linear_1_4488)"/>
<circle cx="52.0756" cy="275.297" r="2.38874" fill="url(#paint60_linear_1_4488)"/>
<circle cx="64.4949" cy="275.297" r="2.38874" fill="url(#paint61_linear_1_4488)"/>
<circle cx="76.9167" cy="275.297" r="2.38874" fill="url(#paint62_linear_1_4488)"/>
<circle cx="89.3406" cy="275.297" r="2.38874" fill="url(#paint63_linear_1_4488)"/>
<rect x="238" y="109" width="184.646" height="52.4157" rx="8" fill="#38AA90"/>
<path d="M280.207 132.184C281.316 132.184 282.196 132.52 282.847 133.192C283.508 133.864 283.839 134.797 283.839 135.992V141.208H281.119V136.36C281.119 135.784 280.964 135.341 280.655 135.032C280.356 134.712 279.94 134.552 279.407 134.552C278.874 134.552 278.452 134.712 278.143 135.032C277.844 135.341 277.695 135.784 277.695 136.36V141.208H274.975V136.36C274.975 135.784 274.82 135.341 274.511 135.032C274.212 134.712 273.796 134.552 273.263 134.552C272.73 134.552 272.308 134.712 271.999 135.032C271.7 135.341 271.551 135.784 271.551 136.36V141.208H268.815V132.28H271.551V133.4C271.828 133.027 272.191 132.733 272.639 132.52C273.087 132.296 273.594 132.184 274.159 132.184C274.831 132.184 275.428 132.328 275.951 132.616C276.484 132.904 276.9 133.315 277.199 133.848C277.508 133.357 277.93 132.957 278.463 132.648C278.996 132.339 279.578 132.184 280.207 132.184ZM294.169 136.6C294.169 136.856 294.153 137.123 294.121 137.4H287.929C287.971 137.955 288.147 138.381 288.457 138.68C288.777 138.968 289.166 139.112 289.625 139.112C290.307 139.112 290.782 138.824 291.049 138.248H293.961C293.811 138.835 293.539 139.363 293.145 139.832C292.761 140.301 292.275 140.669 291.689 140.936C291.102 141.203 290.446 141.336 289.721 141.336C288.846 141.336 288.067 141.149 287.385 140.776C286.702 140.403 286.169 139.869 285.785 139.176C285.401 138.483 285.209 137.672 285.209 136.744C285.209 135.816 285.395 135.005 285.769 134.312C286.153 133.619 286.686 133.085 287.369 132.712C288.051 132.339 288.835 132.152 289.721 132.152C290.585 132.152 291.353 132.333 292.025 132.696C292.697 133.059 293.219 133.576 293.593 134.248C293.977 134.92 294.169 135.704 294.169 136.6ZM291.369 135.88C291.369 135.411 291.209 135.037 290.889 134.76C290.569 134.483 290.169 134.344 289.689 134.344C289.23 134.344 288.841 134.477 288.521 134.744C288.211 135.011 288.019 135.389 287.945 135.88H291.369ZM301.052 132.184C302.097 132.184 302.929 132.525 303.548 133.208C304.177 133.88 304.492 134.808 304.492 135.992V141.208H301.772V136.36C301.772 135.763 301.617 135.299 301.308 134.968C300.999 134.637 300.583 134.472 300.06 134.472C299.537 134.472 299.121 134.637 298.812 134.968C298.503 135.299 298.348 135.763 298.348 136.36V141.208H295.612V132.28H298.348V133.464C298.625 133.069 298.999 132.76 299.468 132.536C299.937 132.301 300.465 132.184 301.052 132.184ZM307.769 131.352C307.289 131.352 306.895 131.213 306.585 130.936C306.287 130.648 306.137 130.296 306.137 129.88C306.137 129.453 306.287 129.101 306.585 128.824C306.895 128.536 307.289 128.392 307.769 128.392C308.239 128.392 308.623 128.536 308.921 128.824C309.231 129.101 309.385 129.453 309.385 129.88C309.385 130.296 309.231 130.648 308.921 130.936C308.623 131.213 308.239 131.352 307.769 131.352ZM309.129 132.28V141.208H306.393V132.28H309.129ZM316.552 132.184C317.597 132.184 318.429 132.525 319.048 133.208C319.677 133.88 319.992 134.808 319.992 135.992V141.208H317.272V136.36C317.272 135.763 317.117 135.299 316.808 134.968C316.499 134.637 316.083 134.472 315.56 134.472C315.037 134.472 314.621 134.637 314.312 134.968C314.003 135.299 313.848 135.763 313.848 136.36V141.208H311.112V132.28H313.848V133.464C314.125 133.069 314.499 132.76 314.968 132.536C315.437 132.301 315.965 132.184 316.552 132.184ZM325.285 132.152C325.915 132.152 326.464 132.28 326.933 132.536C327.413 132.792 327.781 133.128 328.037 133.544V132.28H330.773V141.192C330.773 142.013 330.608 142.755 330.277 143.416C329.957 144.088 329.461 144.621 328.789 145.016C328.128 145.411 327.301 145.608 326.309 145.608C324.987 145.608 323.915 145.293 323.093 144.664C322.272 144.045 321.803 143.203 321.685 142.136H324.389C324.475 142.477 324.677 142.744 324.997 142.936C325.317 143.139 325.712 143.24 326.181 143.24C326.747 143.24 327.195 143.075 327.525 142.744C327.867 142.424 328.037 141.907 328.037 141.192V139.928C327.771 140.344 327.403 140.685 326.933 140.952C326.464 141.208 325.915 141.336 325.285 141.336C324.549 141.336 323.883 141.149 323.285 140.776C322.688 140.392 322.213 139.853 321.861 139.16C321.52 138.456 321.349 137.645 321.349 136.728C321.349 135.811 321.52 135.005 321.861 134.312C322.213 133.619 322.688 133.085 323.285 132.712C323.883 132.339 324.549 132.152 325.285 132.152ZM328.037 136.744C328.037 136.061 327.845 135.523 327.461 135.128C327.088 134.733 326.629 134.536 326.085 134.536C325.541 134.536 325.077 134.733 324.693 135.128C324.32 135.512 324.133 136.045 324.133 136.728C324.133 137.411 324.32 137.955 324.693 138.36C325.077 138.755 325.541 138.952 326.085 138.952C326.629 138.952 327.088 138.755 327.461 138.36C327.845 137.965 328.037 137.427 328.037 136.744ZM338.209 141.208L335.489 137.464V141.208H332.753V129.368H335.489V135.912L338.193 132.28H341.569L337.857 136.76L341.601 141.208H338.209ZM342.099 136.728C342.099 135.811 342.27 135.005 342.611 134.312C342.963 133.619 343.438 133.085 344.035 132.712C344.633 132.339 345.299 132.152 346.035 132.152C346.665 132.152 347.214 132.28 347.683 132.536C348.163 132.792 348.531 133.128 348.787 133.544V132.28H351.523V141.208H348.787V139.944C348.521 140.36 348.147 140.696 347.667 140.952C347.198 141.208 346.649 141.336 346.019 141.336C345.294 141.336 344.633 141.149 344.035 140.776C343.438 140.392 342.963 139.853 342.611 139.16C342.27 138.456 342.099 137.645 342.099 136.728ZM348.787 136.744C348.787 136.061 348.595 135.523 348.211 135.128C347.838 134.733 347.379 134.536 346.835 134.536C346.291 134.536 345.827 134.733 345.443 135.128C345.07 135.512 344.883 136.045 344.883 136.728C344.883 137.411 345.07 137.955 345.443 138.36C345.827 138.755 346.291 138.952 346.835 138.952C347.379 138.952 347.838 138.755 348.211 138.36C348.595 137.965 348.787 137.427 348.787 136.744ZM358.479 138.888V141.208H357.087C356.095 141.208 355.321 140.968 354.767 140.488C354.212 139.997 353.935 139.203 353.935 138.104V134.552H352.847V132.28H353.935V130.104H356.671V132.28H358.463V134.552H356.671V138.136C356.671 138.403 356.735 138.595 356.863 138.712C356.991 138.829 357.204 138.888 357.503 138.888H358.479ZM363.217 132.824C363.26 131.683 363.633 130.803 364.337 130.184C365.041 129.565 365.996 129.256 367.201 129.256C368.001 129.256 368.684 129.395 369.249 129.672C369.825 129.949 370.257 130.328 370.545 130.808C370.844 131.288 370.993 131.827 370.993 132.424C370.993 133.128 370.817 133.704 370.465 134.152C370.113 134.589 369.703 134.888 369.233 135.048V135.112C369.841 135.315 370.321 135.651 370.673 136.12C371.025 136.589 371.201 137.192 371.201 137.928C371.201 138.589 371.047 139.176 370.737 139.688C370.439 140.189 369.996 140.584 369.409 140.872C368.833 141.16 368.145 141.304 367.345 141.304C366.065 141.304 365.041 140.989 364.273 140.36C363.516 139.731 363.116 138.781 363.073 137.512H365.729C365.74 137.981 365.873 138.355 366.129 138.632C366.385 138.899 366.759 139.032 367.249 139.032C367.665 139.032 367.985 138.915 368.209 138.68C368.444 138.435 368.561 138.115 368.561 137.72C368.561 137.208 368.396 136.84 368.065 136.616C367.745 136.381 367.228 136.264 366.513 136.264H366.001V134.04H366.513C367.057 134.04 367.495 133.949 367.825 133.768C368.167 133.576 368.337 133.24 368.337 132.76C368.337 132.376 368.231 132.077 368.017 131.864C367.804 131.651 367.511 131.544 367.137 131.544C366.732 131.544 366.428 131.667 366.225 131.912C366.033 132.157 365.921 132.461 365.889 132.824H363.217ZM372.521 132.072V129.528H376.953V141.208H374.105V132.072H372.521ZM378.6 132.472C378.6 131.608 378.846 130.941 379.336 130.472C379.838 130.003 380.483 129.768 381.272 129.768C382.062 129.768 382.702 130.003 383.192 130.472C383.683 130.941 383.928 131.608 383.928 132.472C383.928 133.336 383.683 134.003 383.192 134.472C382.702 134.941 382.062 135.176 381.272 135.176C380.483 135.176 379.838 134.941 379.336 134.472C378.846 134.003 378.6 133.336 378.6 132.472ZM389.464 129.944L383.304 141.208H380.664L386.824 129.944H389.464ZM381.256 131.368C380.744 131.368 380.488 131.736 380.488 132.472C380.488 133.197 380.744 133.56 381.256 133.56C381.502 133.56 381.694 133.469 381.832 133.288C381.971 133.107 382.04 132.835 382.04 132.472C382.04 131.736 381.779 131.368 381.256 131.368ZM386.216 138.68C386.216 137.816 386.462 137.149 386.952 136.68C387.443 136.211 388.083 135.976 388.872 135.976C389.662 135.976 390.302 136.211 390.792 136.68C391.283 137.149 391.528 137.816 391.528 138.68C391.528 139.544 391.283 140.211 390.792 140.68C390.302 141.149 389.662 141.384 388.872 141.384C388.083 141.384 387.443 141.149 386.952 140.68C386.462 140.211 386.216 139.544 386.216 138.68ZM388.856 137.576C388.611 137.576 388.419 137.667 388.28 137.848C388.152 138.029 388.088 138.307 388.088 138.68C388.088 139.405 388.344 139.768 388.856 139.768C389.102 139.768 389.294 139.677 389.432 139.496C389.571 139.315 389.64 139.043 389.64 138.68C389.64 138.317 389.571 138.045 389.432 137.864C389.294 137.672 389.102 137.576 388.856 137.576Z" fill="white"/>
<rect x="31.7214" y="171.465" width="25.1978" height="63.8343" fill="#38AA90"/>
<rect x="77.0776" y="128.629" width="25.1978" height="106.67" fill="#24DEBC"/>
<rect x="122.432" y="103.432" width="25.1978" height="131.868" fill="#38AA90"/>
<rect x="167.788" y="78.2339" width="25.1978" height="157.066" fill="#24DEBC"/>
<rect x="31.7214" y="235.3" width="161.266" height="13.4388" fill="#38AA90"/>
<path d="M76.1669 68.2742L102.345 94.4519L139.694 57.1029L154.7 72.1093V32.8428H115.433L130.44 47.8491L102.345 75.9443L76.1669 49.7666L25.7291 100.204L34.9829 109.458L76.1669 68.2742Z" fill="#24DEBC"/>
<defs>
<linearGradient id="paint0_linear_1_4488" x1="1.58194" y1="187.065" x2="5.44189" y2="190.672" gradientUnits="userSpaceOnUse">
<stop stop-color="#C5EDE4"/>
<stop offset="1" stop-color="#F4D6FF" stop-opacity="0.79"/>
</linearGradient>
<linearGradient id="paint1_linear_1_4488" x1="14.0036" y1="187.065" x2="17.8636" y2="190.672" gradientUnits="userSpaceOnUse">
<stop stop-color="#C5EDE4"/>
<stop offset="1" stop-color="#F4D6FF" stop-opacity="0.79"/>
</linearGradient>
<linearGradient id="paint2_linear_1_4488" x1="26.4231" y1="187.065" x2="30.283" y2="190.672" gradientUnits="userSpaceOnUse">
<stop stop-color="#C5EDE4"/>
<stop offset="1" stop-color="#F4D6FF" stop-opacity="0.79"/>
</linearGradient>
<linearGradient id="paint3_linear_1_4488" x1="38.847" y1="187.065" x2="42.707" y2="190.672" gradientUnits="userSpaceOnUse">
<stop stop-color="#C5EDE4"/>
<stop offset="1" stop-color="#F4D6FF" stop-opacity="0.79"/>
</linearGradient>
<linearGradient id="paint4_linear_1_4488" x1="51.2688" y1="187.065" x2="55.1287" y2="190.672" gradientUnits="userSpaceOnUse">
<stop stop-color="#C5EDE4"/>
<stop offset="1" stop-color="#F4D6FF" stop-opacity="0.79"/>
</linearGradient>
<linearGradient id="paint5_linear_1_4488" x1="63.6881" y1="187.065" x2="67.5481" y2="190.672" gradientUnits="userSpaceOnUse">
<stop stop-color="#C5EDE4"/>
<stop offset="1" stop-color="#F4D6FF" stop-opacity="0.79"/>
</linearGradient>
<linearGradient id="paint6_linear_1_4488" x1="76.1099" y1="187.065" x2="79.9698" y2="190.672" gradientUnits="userSpaceOnUse">
<stop stop-color="#C5EDE4"/>
<stop offset="1" stop-color="#F4D6FF" stop-opacity="0.79"/>
</linearGradient>
<linearGradient id="paint7_linear_1_4488" x1="88.5338" y1="187.065" x2="92.3938" y2="190.672" gradientUnits="userSpaceOnUse">
<stop stop-color="#C5EDE4"/>
<stop offset="1" stop-color="#F4D6FF" stop-opacity="0.79"/>
</linearGradient>
<linearGradient id="paint8_linear_1_4488" x1="1.58194" y1="199.487" x2="5.44189" y2="203.094" gradientUnits="userSpaceOnUse">
<stop stop-color="#C5EDE4"/>
<stop offset="1" stop-color="#F4D6FF" stop-opacity="0.79"/>
</linearGradient>
<linearGradient id="paint9_linear_1_4488" x1="14.0036" y1="199.487" x2="17.8636" y2="203.094" gradientUnits="userSpaceOnUse">
<stop stop-color="#C5EDE4"/>
<stop offset="1" stop-color="#F4D6FF" stop-opacity="0.79"/>
</linearGradient>
<linearGradient id="paint10_linear_1_4488" x1="26.4231" y1="199.487" x2="30.283" y2="203.094" gradientUnits="userSpaceOnUse">
<stop stop-color="#C5EDE4"/>
<stop offset="1" stop-color="#F4D6FF" stop-opacity="0.79"/>
</linearGradient>
<linearGradient id="paint11_linear_1_4488" x1="38.847" y1="199.487" x2="42.707" y2="203.094" gradientUnits="userSpaceOnUse">
<stop stop-color="#C5EDE4"/>
<stop offset="1" stop-color="#F4D6FF" stop-opacity="0.79"/>
</linearGradient>
<linearGradient id="paint12_linear_1_4488" x1="51.2688" y1="199.487" x2="55.1287" y2="203.094" gradientUnits="userSpaceOnUse">
<stop stop-color="#C5EDE4"/>
<stop offset="1" stop-color="#F4D6FF" stop-opacity="0.79"/>
</linearGradient>
<linearGradient id="paint13_linear_1_4488" x1="63.6881" y1="199.487" x2="67.5481" y2="203.094" gradientUnits="userSpaceOnUse">
<stop stop-color="#C5EDE4"/>
<stop offset="1" stop-color="#F4D6FF" stop-opacity="0.79"/>
</linearGradient>
<linearGradient id="paint14_linear_1_4488" x1="76.1099" y1="199.487" x2="79.9698" y2="203.094" gradientUnits="userSpaceOnUse">
<stop stop-color="#C5EDE4"/>
<stop offset="1" stop-color="#F4D6FF" stop-opacity="0.79"/>
</linearGradient>
<linearGradient id="paint15_linear_1_4488" x1="88.5338" y1="199.487" x2="92.3938" y2="203.094" gradientUnits="userSpaceOnUse">
<stop stop-color="#C5EDE4"/>
<stop offset="1" stop-color="#F4D6FF" stop-opacity="0.79"/>
</linearGradient>
<linearGradient id="paint16_linear_1_4488" x1="1.58194" y1="211.908" x2="5.44189" y2="215.515" gradientUnits="userSpaceOnUse">
<stop stop-color="#C5EDE4"/>
<stop offset="1" stop-color="#F4D6FF" stop-opacity="0.79"/>
</linearGradient>
<linearGradient id="paint17_linear_1_4488" x1="14.0036" y1="211.908" x2="17.8636" y2="215.515" gradientUnits="userSpaceOnUse">
<stop stop-color="#C5EDE4"/>
<stop offset="1" stop-color="#F4D6FF" stop-opacity="0.79"/>
</linearGradient>
<linearGradient id="paint18_linear_1_4488" x1="26.4231" y1="211.908" x2="30.283" y2="215.515" gradientUnits="userSpaceOnUse">
<stop stop-color="#C5EDE4"/>
<stop offset="1" stop-color="#F4D6FF" stop-opacity="0.79"/>
</linearGradient>
<linearGradient id="paint19_linear_1_4488" x1="38.847" y1="211.908" x2="42.707" y2="215.515" gradientUnits="userSpaceOnUse">
<stop stop-color="#C5EDE4"/>
<stop offset="1" stop-color="#F4D6FF" stop-opacity="0.79"/>
</linearGradient>
<linearGradient id="paint20_linear_1_4488" x1="51.2688" y1="211.908" x2="55.1287" y2="215.515" gradientUnits="userSpaceOnUse">
<stop stop-color="#C5EDE4"/>
<stop offset="1" stop-color="#F4D6FF" stop-opacity="0.79"/>
</linearGradient>
<linearGradient id="paint21_linear_1_4488" x1="63.6881" y1="211.908" x2="67.5481" y2="215.515" gradientUnits="userSpaceOnUse">
<stop stop-color="#C5EDE4"/>
<stop offset="1" stop-color="#F4D6FF" stop-opacity="0.79"/>
</linearGradient>
<linearGradient id="paint22_linear_1_4488" x1="76.1099" y1="211.908" x2="79.9698" y2="215.515" gradientUnits="userSpaceOnUse">
<stop stop-color="#C5EDE4"/>
<stop offset="1" stop-color="#F4D6FF" stop-opacity="0.79"/>
</linearGradient>
<linearGradient id="paint23_linear_1_4488" x1="88.5338" y1="211.908" x2="92.3938" y2="215.515" gradientUnits="userSpaceOnUse">
<stop stop-color="#C5EDE4"/>
<stop offset="1" stop-color="#F4D6FF" stop-opacity="0.79"/>
</linearGradient>
<linearGradient id="paint24_linear_1_4488" x1="1.58194" y1="224.33" x2="5.44189" y2="227.936" gradientUnits="userSpaceOnUse">
<stop stop-color="#C5EDE4"/>
<stop offset="1" stop-color="#F4D6FF" stop-opacity="0.79"/>
</linearGradient>
<linearGradient id="paint25_linear_1_4488" x1="14.0036" y1="224.33" x2="17.8636" y2="227.936" gradientUnits="userSpaceOnUse">
<stop stop-color="#C5EDE4"/>
<stop offset="1" stop-color="#F4D6FF" stop-opacity="0.79"/>
</linearGradient>
<linearGradient id="paint26_linear_1_4488" x1="26.4231" y1="224.33" x2="30.283" y2="227.936" gradientUnits="userSpaceOnUse">
<stop stop-color="#C5EDE4"/>
<stop offset="1" stop-color="#F4D6FF" stop-opacity="0.79"/>
</linearGradient>
<linearGradient id="paint27_linear_1_4488" x1="38.847" y1="224.33" x2="42.707" y2="227.936" gradientUnits="userSpaceOnUse">
<stop stop-color="#C5EDE4"/>
<stop offset="1" stop-color="#F4D6FF" stop-opacity="0.79"/>
</linearGradient>
<linearGradient id="paint28_linear_1_4488" x1="51.2688" y1="224.33" x2="55.1287" y2="227.936" gradientUnits="userSpaceOnUse">
<stop stop-color="#C5EDE4"/>
<stop offset="1" stop-color="#F4D6FF" stop-opacity="0.79"/>
</linearGradient>
<linearGradient id="paint29_linear_1_4488" x1="63.6881" y1="224.33" x2="67.5481" y2="227.936" gradientUnits="userSpaceOnUse">
<stop stop-color="#C5EDE4"/>
<stop offset="1" stop-color="#F4D6FF" stop-opacity="0.79"/>
</linearGradient>
<linearGradient id="paint30_linear_1_4488" x1="76.1099" y1="224.33" x2="79.9698" y2="227.936" gradientUnits="userSpaceOnUse">
<stop stop-color="#C5EDE4"/>
<stop offset="1" stop-color="#F4D6FF" stop-opacity="0.79"/>
</linearGradient>
<linearGradient id="paint31_linear_1_4488" x1="88.5338" y1="224.33" x2="92.3938" y2="227.936" gradientUnits="userSpaceOnUse">
<stop stop-color="#C5EDE4"/>
<stop offset="1" stop-color="#F4D6FF" stop-opacity="0.79"/>
</linearGradient>
<linearGradient id="paint32_linear_1_4488" x1="1.58194" y1="236.751" x2="5.44189" y2="240.358" gradientUnits="userSpaceOnUse">
<stop stop-color="#C5EDE4"/>
<stop offset="1" stop-color="#F4D6FF" stop-opacity="0.79"/>
</linearGradient>
<linearGradient id="paint33_linear_1_4488" x1="14.0036" y1="236.751" x2="17.8636" y2="240.358" gradientUnits="userSpaceOnUse">
<stop stop-color="#C5EDE4"/>
<stop offset="1" stop-color="#F4D6FF" stop-opacity="0.79"/>
</linearGradient>
<linearGradient id="paint34_linear_1_4488" x1="26.4231" y1="236.751" x2="30.283" y2="240.358" gradientUnits="userSpaceOnUse">
<stop stop-color="#C5EDE4"/>
<stop offset="1" stop-color="#F4D6FF" stop-opacity="0.79"/>
</linearGradient>
<linearGradient id="paint35_linear_1_4488" x1="38.847" y1="236.751" x2="42.707" y2="240.358" gradientUnits="userSpaceOnUse">
<stop stop-color="#C5EDE4"/>
<stop offset="1" stop-color="#F4D6FF" stop-opacity="0.79"/>
</linearGradient>
<linearGradient id="paint36_linear_1_4488" x1="51.2688" y1="236.751" x2="55.1287" y2="240.358" gradientUnits="userSpaceOnUse">
<stop stop-color="#C5EDE4"/>
<stop offset="1" stop-color="#F4D6FF" stop-opacity="0.79"/>
</linearGradient>
<linearGradient id="paint37_linear_1_4488" x1="63.6881" y1="236.751" x2="67.5481" y2="240.358" gradientUnits="userSpaceOnUse">
<stop stop-color="#C5EDE4"/>
<stop offset="1" stop-color="#F4D6FF" stop-opacity="0.79"/>
</linearGradient>
<linearGradient id="paint38_linear_1_4488" x1="76.1099" y1="236.751" x2="79.9698" y2="240.358" gradientUnits="userSpaceOnUse">
<stop stop-color="#C5EDE4"/>
<stop offset="1" stop-color="#F4D6FF" stop-opacity="0.79"/>
</linearGradient>
<linearGradient id="paint39_linear_1_4488" x1="88.5338" y1="236.751" x2="92.3938" y2="240.358" gradientUnits="userSpaceOnUse">
<stop stop-color="#C5EDE4"/>
<stop offset="1" stop-color="#F4D6FF" stop-opacity="0.79"/>
</linearGradient>
<linearGradient id="paint40_linear_1_4488" x1="1.58194" y1="249.172" x2="5.44189" y2="252.779" gradientUnits="userSpaceOnUse">
<stop stop-color="#C5EDE4"/>
<stop offset="1" stop-color="#F4D6FF" stop-opacity="0.79"/>
</linearGradient>
<linearGradient id="paint41_linear_1_4488" x1="14.0036" y1="249.172" x2="17.8636" y2="252.779" gradientUnits="userSpaceOnUse">
<stop stop-color="#C5EDE4"/>
<stop offset="1" stop-color="#F4D6FF" stop-opacity="0.79"/>
</linearGradient>
<linearGradient id="paint42_linear_1_4488" x1="26.4231" y1="249.172" x2="30.283" y2="252.779" gradientUnits="userSpaceOnUse">
<stop stop-color="#C5EDE4"/>
<stop offset="1" stop-color="#F4D6FF" stop-opacity="0.79"/>
</linearGradient>
<linearGradient id="paint43_linear_1_4488" x1="38.847" y1="249.172" x2="42.707" y2="252.779" gradientUnits="userSpaceOnUse">
<stop stop-color="#C5EDE4"/>
<stop offset="1" stop-color="#F4D6FF" stop-opacity="0.79"/>
</linearGradient>
<linearGradient id="paint44_linear_1_4488" x1="51.2688" y1="249.172" x2="55.1287" y2="252.779" gradientUnits="userSpaceOnUse">
<stop stop-color="#C5EDE4"/>
<stop offset="1" stop-color="#F4D6FF" stop-opacity="0.79"/>
</linearGradient>
<linearGradient id="paint45_linear_1_4488" x1="63.6881" y1="249.172" x2="67.5481" y2="252.779" gradientUnits="userSpaceOnUse">
<stop stop-color="#C5EDE4"/>
<stop offset="1" stop-color="#F4D6FF" stop-opacity="0.79"/>
</linearGradient>
<linearGradient id="paint46_linear_1_4488" x1="76.1099" y1="249.172" x2="79.9698" y2="252.779" gradientUnits="userSpaceOnUse">
<stop stop-color="#C5EDE4"/>
<stop offset="1" stop-color="#F4D6FF" stop-opacity="0.79"/>
</linearGradient>
<linearGradient id="paint47_linear_1_4488" x1="88.5338" y1="249.172" x2="92.3938" y2="252.779" gradientUnits="userSpaceOnUse">
<stop stop-color="#C5EDE4"/>
<stop offset="1" stop-color="#F4D6FF" stop-opacity="0.79"/>
</linearGradient>
<linearGradient id="paint48_linear_1_4488" x1="1.58194" y1="261.594" x2="5.44189" y2="265.201" gradientUnits="userSpaceOnUse">
<stop stop-color="#C5EDE4"/>
<stop offset="1" stop-color="#F4D6FF" stop-opacity="0.79"/>
</linearGradient>
<linearGradient id="paint49_linear_1_4488" x1="14.0036" y1="261.594" x2="17.8636" y2="265.201" gradientUnits="userSpaceOnUse">
<stop stop-color="#C5EDE4"/>
<stop offset="1" stop-color="#F4D6FF" stop-opacity="0.79"/>
</linearGradient>
<linearGradient id="paint50_linear_1_4488" x1="26.4231" y1="261.594" x2="30.283" y2="265.201" gradientUnits="userSpaceOnUse">
<stop stop-color="#C5EDE4"/>
<stop offset="1" stop-color="#F4D6FF" stop-opacity="0.79"/>
</linearGradient>
<linearGradient id="paint51_linear_1_4488" x1="38.847" y1="261.594" x2="42.707" y2="265.201" gradientUnits="userSpaceOnUse">
<stop stop-color="#C5EDE4"/>
<stop offset="1" stop-color="#F4D6FF" stop-opacity="0.79"/>
</linearGradient>
<linearGradient id="paint52_linear_1_4488" x1="51.2688" y1="261.594" x2="55.1287" y2="265.201" gradientUnits="userSpaceOnUse">
<stop stop-color="#C5EDE4"/>
<stop offset="1" stop-color="#F4D6FF" stop-opacity="0.79"/>
</linearGradient>
<linearGradient id="paint53_linear_1_4488" x1="63.6881" y1="261.594" x2="67.5481" y2="265.201" gradientUnits="userSpaceOnUse">
<stop stop-color="#C5EDE4"/>
<stop offset="1" stop-color="#F4D6FF" stop-opacity="0.79"/>
</linearGradient>
<linearGradient id="paint54_linear_1_4488" x1="76.1099" y1="261.594" x2="79.9698" y2="265.201" gradientUnits="userSpaceOnUse">
<stop stop-color="#C5EDE4"/>
<stop offset="1" stop-color="#F4D6FF" stop-opacity="0.79"/>
</linearGradient>
<linearGradient id="paint55_linear_1_4488" x1="88.5338" y1="261.594" x2="92.3938" y2="265.201" gradientUnits="userSpaceOnUse">
<stop stop-color="#C5EDE4"/>
<stop offset="1" stop-color="#F4D6FF" stop-opacity="0.79"/>
</linearGradient>
<linearGradient id="paint56_linear_1_4488" x1="1.58194" y1="274.016" x2="5.44189" y2="277.622" gradientUnits="userSpaceOnUse">
<stop stop-color="#C5EDE4"/>
<stop offset="1" stop-color="#F4D6FF" stop-opacity="0.79"/>
</linearGradient>
<linearGradient id="paint57_linear_1_4488" x1="14.0036" y1="274.016" x2="17.8636" y2="277.622" gradientUnits="userSpaceOnUse">
<stop stop-color="#C5EDE4"/>
<stop offset="1" stop-color="#F4D6FF" stop-opacity="0.79"/>
</linearGradient>
<linearGradient id="paint58_linear_1_4488" x1="26.4231" y1="274.016" x2="30.283" y2="277.622" gradientUnits="userSpaceOnUse">
<stop stop-color="#C5EDE4"/>
<stop offset="1" stop-color="#F4D6FF" stop-opacity="0.79"/>
</linearGradient>
<linearGradient id="paint59_linear_1_4488" x1="38.847" y1="274.016" x2="42.707" y2="277.622" gradientUnits="userSpaceOnUse">
<stop stop-color="#C5EDE4"/>
<stop offset="1" stop-color="#F4D6FF" stop-opacity="0.79"/>
</linearGradient>
<linearGradient id="paint60_linear_1_4488" x1="51.2688" y1="274.016" x2="55.1287" y2="277.622" gradientUnits="userSpaceOnUse">
<stop stop-color="#C5EDE4"/>
<stop offset="1" stop-color="#F4D6FF" stop-opacity="0.79"/>
</linearGradient>
<linearGradient id="paint61_linear_1_4488" x1="63.6881" y1="274.016" x2="67.5481" y2="277.622" gradientUnits="userSpaceOnUse">
<stop stop-color="#C5EDE4"/>
<stop offset="1" stop-color="#F4D6FF" stop-opacity="0.79"/>
</linearGradient>
<linearGradient id="paint62_linear_1_4488" x1="76.1099" y1="274.016" x2="79.9698" y2="277.622" gradientUnits="userSpaceOnUse">
<stop stop-color="#C5EDE4"/>
<stop offset="1" stop-color="#F4D6FF" stop-opacity="0.79"/>
</linearGradient>
<linearGradient id="paint63_linear_1_4488" x1="88.5338" y1="274.016" x2="92.3938" y2="277.622" gradientUnits="userSpaceOnUse">
<stop stop-color="#C5EDE4"/>
<stop offset="1" stop-color="#F4D6FF" stop-opacity="0.79"/>
</linearGradient>
</defs>
</svg>
